<svg id="Layer_1" data-name="Layer 1" xmlns="http://www.w3.org/2000/svg" viewBox="0 0 865.76 682.89"><polygon points="634.67 607.72 657.54 603.61 643.82 500.03 618.75 509.47 634.67 607.72" fill="#ffbe9d"/><polygon points="561.46 611.87 584.7 611.87 587.36 538.39 562.86 539.31 561.46 611.87" fill="#ffbe9d"/><path d="M532.93,648.17H584.7v-36.3H561.46c-.44,12-14,20.4-14,20.4C533.11,638.27,532.93,648.17,532.93,648.17Z" fill="#2f2f2f"/><path d="M532.93,648.17H584.7v-3.06H561.87s-1.16-10.44-14.36-12.84C533.11,638.27,532.93,648.17,532.93,648.17Z" opacity="0.2" style="isolation:isolate"/><path d="M613,648.48l51-9.15-6.41-35.72-22.87,4.11c1.68,11.89-10.13,22.54-10.13,22.54C611.42,638.71,613,648.48,613,648.48Z" fill="#2f2f2f"/><path d="M613,648.48l51-9.15-.54-3-22.47,4s-3-10.07-16.4-10.1C611.42,638.71,613,648.48,613,648.48Z" opacity="0.2" style="isolation:isolate"/><path d="M682.74,646.84l51.75,1.33.93-36.29-23.23-.59c-.75,12-14.47,20-14.47,20C683.17,637,682.74,646.84,682.74,646.84Z" fill="#6742c3"/><path d="M682.74,646.84l51.75,1.33.08-3.06-22.82-.59s-.9-10.46-14-13.2C683.17,637,682.74,646.84,682.74,646.84Z" opacity="0.2" style="isolation:isolate"/><path d="M785.56,648.17l50.71-10.4L829,602.21l-22.76,4.67c2,11.84-9.58,22.78-9.58,22.78C783.75,638.43,785.56,648.17,785.56,648.17Z" fill="#6742c3"/><path d="M785.56,648.17l50.71-10.4-.61-3-22.37,4.59s-3.23-10-16.65-9.7C783.75,638.43,785.56,648.17,785.56,648.17Z" opacity="0.2" style="isolation:isolate"/><path d="M676.11,542.46c-5.44,5.64-16.85,12.94-36.23,5.93,0,0-28.44,15.45-55.65-1.85,0,0-25.69,3.44-45.12-1.33a11,11,0,0,1-8.23-12l23.61-203.76,7.13-43.9,68.29-8s17.71,13.4,29.15,77.12c9.11,50.64,14.85,125.69,14.85,125.69l5.61,51.92A12.64,12.64,0,0,1,676.11,542.46Z" fill="#6742c3"/><path d="M535,256.51c1.22-3.76,17.12.57,18.49.84s1.82-1.7.57-1.88c-1.81-.25-20.65-3.35-19.51-7.06.65-2,4.22-.55,4.22-.55s17.42,4.21,17.89,2.44S547,245.69,543.52,245s-4.52-2.62-2.94-3.89c1.07-.86,11.8,1,15.23,1.82s12.81,3.09,9.12-1.8-4.7-10.07-4-11.64a1.92,1.92,0,0,1,3.56.68,22.31,22.31,0,0,0,2.74,5.56,14.33,14.33,0,0,0,3.33,3.74c1.5,1.19,2.81,2.15,4,2.93,8.52.79,40,.76,61.25-6.1,5.1-1.63,27.79-42.5,27.79-42.5h0l27.49,18.29-19,33.36c-17.14,37.27-103.53,21.14-103.53,21.14h0a183.27,183.27,0,0,1-19.75-.14c-9.09-.95-9-1.76-8.72-2.8.78-2.8,16,1.06,13.24-1.63S534,259.4,535,256.51Z" fill="#f7a48b"/><path d="M786.23,217.79c-2.6-3-15.51,7.25-16.66,8.05s-2.35-.86-1.26-1.51c1.63-.94,17.66-11.2,15.14-14.16-1.41-1.63-4.1,1.15-4.1,1.15S765,222,763.84,220.61s7.06-8,10-10.05,3.12-4.18,1.17-4.73c-1.34-.38-10.44,5.61-13.3,7.67s-10.56,7.87-9.08,1.92.36-11.09-.91-12.28-3.36.17-3,2a22.4,22.4,0,0,1-.32,6.17,15,15,0,0,1-1.63,4.77c-.91,1.62-1.74,3.07-2.49,4.24-7.52,4.1-31.1,15.92-53.39,18a17.74,17.74,0,0,1-15.11-5.08L664,219.22l-22.77,17.39s7.11,8.82,17,20.76c25.9,31.22,101.25-17.07,101.25-17.07v-.08a185.87,185.87,0,0,0,18.07-7.92c8-4.44,7.59-5.17,6.91-6-1.81-2.26-14.33,7.28-12.83,3.67S788.23,220.07,786.23,217.79Z" fill="#f9b499"/><path d="M460.11,317.19c-.36-3.5,14.14-5.67,15.34-5.95s.87-2.05-.22-1.74c-1.55.44-18,4.68-18.38,1.25-.21-1.9,3.26-2,3.26-2s15.67-2.83,15.44-4.44-9.49-.29-12.58.39-4.62-.52-3.79-2.11c.57-1.09,10-3.38,13-4s11.52-2.08,6.76-4.75-7.43-6.5-7.43-8a1.7,1.7,0,0,1,3.15-.72,19.94,19.94,0,0,0,4.22,3.55,13.59,13.59,0,0,0,4,1.85c1.63.42,3.06.73,4.28,1,7.22-2.41,32.78-13.71,47.68-26.93,3.54-3.15,7.36-44.55,7.36-44.55h0l28.93,5-3.55,34c-.57,36.46-76.65,54.33-76.65,54.33v-.08a165.47,165.47,0,0,1-16.13,7c-7.74,2.47-8,1.79-8.13.85-.35-2.56,13.45-4.88,10.18-6.12S460.45,319.87,460.11,317.19Z" fill="#f9b499"/><path d="M567.6,172.62l-.59.26c-3.25,1.47-18.91,9.66-27,34.85l-9,28.18,28.84-.62" fill="#2f2f2f"/><path d="M546,215.87a54.2,54.2,0,0,0-1.48,12.49,29.77,29.77,0,0,0,8.39,18l.12.13,6.83,48.53,75.69-10.61-5.36-10.59a18.61,18.61,0,0,1-1.86-10.71l4.08-32.67,6.29,8.39,26.85-20.06L658,203.6c-3.12-6.51-7.51-14.25-12.14-19.17a43.12,43.12,0,0,0-24.9-12.7c-6.76-1.06-13.3-1.47-13.3-1.47l-29.12,2.27c-1.37.3,3.63-.1-10.91.16L546,215.94" fill="#2f2f2f"/><path d="M556.38,251.6a7.3,7.3,0,0,1-1.41-1.25,32.32,32.32,0,0,1-3.26-3.94,36.82,36.82,0,0,1-4.87-32.34,31.82,31.82,0,0,1,1.91-4.73,6.73,6.73,0,0,1,1-1.63c.15,0-1.12,2.42-2.26,6.51A38.69,38.69,0,0,0,552.35,246,47.29,47.29,0,0,0,556.38,251.6Z" fill="#2f2f2f"/><path d="M556.38,251.6a7.3,7.3,0,0,1-1.41-1.25,32.32,32.32,0,0,1-3.26-3.94,36.82,36.82,0,0,1-4.87-32.34,31.82,31.82,0,0,1,1.91-4.73,6.73,6.73,0,0,1,1-1.63c.15,0-1.12,2.42-2.26,6.51A38.69,38.69,0,0,0,552.35,246,47.29,47.29,0,0,0,556.38,251.6Z" opacity="0.2"/><path d="M627.73,293.81a1,1,0,0,1,.21.32c.16.28.34.61.55,1a15.28,15.28,0,0,1,1.21,4.23,24.39,24.39,0,0,1-4.05,15.41,54.19,54.19,0,0,1-7.11,8.59,126.77,126.77,0,0,0-8.63,9.32,42.06,42.06,0,0,0-6.62,12.21c-1.63,4.57-2.86,9.46-4.13,14.48a100.37,100.37,0,0,1-4.49,14.49A48.75,48.75,0,0,1,587.36,386a50.63,50.63,0,0,1-9.3,8.79,53,53,0,0,1-9.76,5.52,46,46,0,0,1-15.66,3.62h-2.52l-1.85-.11-1.14-.08h3c.72,0,1.63-.1,2.5-.15a47.13,47.13,0,0,0,15.45-3.82,54.34,54.34,0,0,0,9.51-5.53,51,51,0,0,0,9.13-8.73,48.5,48.5,0,0,0,7.13-11.94,104.76,104.76,0,0,0,4.46-14.37,145.17,145.17,0,0,1,4.16-14.63,43.08,43.08,0,0,1,6.78-12.43,126.23,126.23,0,0,1,8.75-9.31,52.88,52.88,0,0,0,7.09-8.43,24.13,24.13,0,0,0,4.23-15.05A17.46,17.46,0,0,0,627.73,293.81Z" fill="#fafafa"/><path d="M677.09,511.37a14.7,14.7,0,0,0-2.87-2.59,15.67,15.67,0,0,0-10.17-2.06,28.73,28.73,0,0,0-7,1.9c-2.46,1-5,2.21-7.74,3.45a40.46,40.46,0,0,1-9,3,20,20,0,0,1-5.06.32,16.75,16.75,0,0,1-5.07-1.2,22.83,22.83,0,0,1-8.13-6.18,63,63,0,0,1-5.56-7.63c-1.63-2.53-3.06-5-4.64-7.09a38.11,38.11,0,0,0-4.87-5.52,18.78,18.78,0,0,0-9.13-5.09,26.48,26.48,0,0,0-3.88-.31,4.25,4.25,0,0,1,1-.15,8.69,8.69,0,0,1,1.25,0,9.77,9.77,0,0,1,1.62.16,18.62,18.62,0,0,1,9.47,5,39.72,39.72,0,0,1,5,5.54c1.62,2.13,3.1,4.59,4.73,7.09a60.5,60.5,0,0,0,5.51,7.5,22.26,22.26,0,0,0,7.82,6,16.18,16.18,0,0,0,4.88,1.16,20.48,20.48,0,0,0,4.88-.31,40.14,40.14,0,0,0,8.8-3c2.71-1.2,5.3-2.44,7.8-3.38a28.22,28.22,0,0,1,7.24-1.84,15.63,15.63,0,0,1,10.4,2.38,10.3,10.3,0,0,1,2.18,1.93A4.18,4.18,0,0,1,677.09,511.37Z" fill="#fafafa"/><path d="M667,419.68a8.83,8.83,0,0,1-1.63,1.14,19.87,19.87,0,0,1-2.06,1.17,26.85,26.85,0,0,1-2.83,1.31,28.63,28.63,0,0,1-3.56,1.3c-1.39.45-2.79.82-4.21,1.13a50.07,50.07,0,0,1-9.92.94,48.45,48.45,0,0,1-9.9-1.27,40.74,40.74,0,0,1-4.17-1.25,30.61,30.61,0,0,1-3.53-1.42c-1.07-.44-2-1-2.78-1.41a18.1,18.1,0,0,1-2-1.24,9,9,0,0,1-1.63-1.18c.08-.15,2.44,1.49,6.65,3.25,1.14.49,2.31.92,3.5,1.3s2.66.78,4.13,1.15a50.76,50.76,0,0,0,9.75,1.19,52.32,52.32,0,0,0,9.76-.86c1.46-.34,2.88-.6,4.16-1a34.33,34.33,0,0,0,3.55-1.18C664.51,421,667,419.53,667,419.68Z" fill="#fafafa"/><path d="M657.4,342.73a8.82,8.82,0,0,1-2.87,2.83,16.5,16.5,0,0,1-9.29,2.93,16.27,16.27,0,0,1-9.27-2.94,8.92,8.92,0,0,1-2.87-2.83c.09-.1,1.13,1.06,3.25,2.32a16.74,16.74,0,0,0,17.88,0C656.27,343.78,657.31,342.62,657.4,342.73Z" fill="#fafafa"/><g opacity="0.2"><path d="M533.36,539.74c8.13,2.31,16.26,4.63,24.73,4.37s17.14-3.52,22-10.39c5-7.12,5.38-17.23,11.88-23,4.59-4.08,11.09-5,16.94-6.79a49.87,49.87,0,0,0,33.84-41.16c1.63-15.52-4-32,1.79-46.5,3.11-7.74,9.25-14.18,11.11-22.31,3-13.25-6.17-25.88-14.78-36.39-2.22-2.7-11.21-8.93-11.21-8.93s-3,9.86-2.71,14.09c.7,11.48,9.43,22.65,7,33.88-2.7,12.62-17.89,20.68-21.93,32.94-4.28,13.09,3.7,29-7.84,44-5.79,7.51-22.31,9.75-28.36,17-3.95,4.73-4.63,14.43-6.5,20.29-5.95,18.08-15.95,24.23-34.47,28.65"/></g><path d="M626.88,220.91a3.63,3.63,0,0,1-.22.92c-.12.32-.23.68-.35,1.08l-.61,1.44a24.6,24.6,0,0,1-6,8,26.06,26.06,0,0,1-13.24,6.34,24.06,24.06,0,0,1-8.75-.23,45.49,45.49,0,0,1-8.89-3c-5.87-2.58-11.22-5.48-16.54-6.83a25.38,25.38,0,0,0-7.66-.92,16.79,16.79,0,0,0-6.5,1.54,14.43,14.43,0,0,0-7,6.5,19.85,19.85,0,0,0-1.1,3.43,8.44,8.44,0,0,1,.79-3.56,14.48,14.48,0,0,1,7.16-6.92,17.46,17.46,0,0,1,6.7-1.63,26.53,26.53,0,0,1,7.88.86c5.45,1.35,10.88,4.26,16.67,6.82a46.16,46.16,0,0,0,8.73,2.92,24.12,24.12,0,0,0,8.47.28,25.79,25.79,0,0,0,13-6,25,25,0,0,0,6-7.63c.26-.52.49-1,.68-1.4l.42-1A4.2,4.2,0,0,1,626.88,220.91Z" fill="#fafafa"/><path d="M626.3,270.8a25,25,0,0,0-2.49-1.4,13,13,0,0,0-3.17-1,17.43,17.43,0,0,0-4.39-.08,27.75,27.75,0,0,0-10.81,3.69c-3.81,2.12-7.73,5-12.39,7.12a24.41,24.41,0,0,1-14.17,1.92,41.28,41.28,0,0,1-11.15-3.53,78.52,78.52,0,0,1-7-3.62c-.81-.46-1.43-.83-1.84-1.09a2.69,2.69,0,0,1-.62-.44,20.9,20.9,0,0,1,2.62,1.24c1.63.83,4,2.06,7.07,3.36a43.44,43.44,0,0,0,11,3.25,23.86,23.86,0,0,0,13.71-1.93c4.55-2.08,8.48-4.88,12.35-7a27.64,27.64,0,0,1,11.14-3.61,17.12,17.12,0,0,1,4.52.23A12.39,12.39,0,0,1,624,269a9.88,9.88,0,0,1,1.81,1.18C626.2,270.61,626.4,270.78,626.3,270.8Z" fill="#fafafa"/><path d="M646.56,184.9a5.87,5.87,0,0,1,.11,1.62,20.78,20.78,0,0,1-.57,4.51,23.72,23.72,0,0,1-21.35,18.41,20.19,20.19,0,0,1-4.53-.12,5.07,5.07,0,0,1-1.63-.36,49.69,49.69,0,0,0,6.1-.13A24.22,24.22,0,0,0,645.52,191,54.24,54.24,0,0,0,646.56,184.9Z" fill="#fafafa"/><path d="M602.07,194.43a2.73,2.73,0,0,1-.28.6,12.75,12.75,0,0,1-1,1.62,22,22,0,0,1-4.87,5,24.89,24.89,0,0,1-15.47,5.13,23.07,23.07,0,0,1-6.5-1.05,71.35,71.35,0,0,1-11.38-5.48,31.76,31.76,0,0,0-9.5-3.53,15.67,15.67,0,0,0-6.78.23c-1.63.44-2.34.91-2.37.84s.16-.16.53-.37a8.21,8.21,0,0,1,1.74-.78,14.8,14.8,0,0,1,7-.51,30.46,30.46,0,0,1,9.76,3.43A77.24,77.24,0,0,0,574.3,205a23.53,23.53,0,0,0,12.21.41,25.89,25.89,0,0,0,9.17-4.18A30,30,0,0,0,602.07,194.43Z" fill="#fafafa"/><g opacity="0.2"><path d="M584.59,236.12a46.77,46.77,0,0,0,.8,13.61,15.64,15.64,0,0,0,8,10.52,11.53,11.53,0,0,0,15.26-5.75,12,12,0,0,0,.86-2.81,25.59,25.59,0,0,1-25.29-11.83"/></g><path d="M571,88.59c-3.34-3.51-9.26-3.77-13.43-1.25a16.42,16.42,0,0,0-7.22,12.1c-.37,3-.14,6.26-1.62,8.91s-4.88,4.34-7.09,6.74a12,12,0,0,0-1.55,13.65c1.32,2.31,3.53,4.6,2.9,7.18s-4,3.73-6,5.76c-2.93,3-2.47,7.84-1.63,11.93.39,1.86,1,3.91,2.64,4.79a7.37,7.37,0,0,0,4.43.24c9.39-1.32,18.9.67,28.36,1.17s19.77-.76,26.67-7.28" fill="#2f2f2f"/><path d="M605,106.74l.91,76.24a17.27,17.27,0,0,1-17.27,16.93h0a17.27,17.27,0,0,1-17.25-17.27V158.25s-12.14-2-14.63-17.89c-1.25-7.88-.86-20.81-.2-31.38.6-9.51,6.83-21.48,19.51-21.43C576,87.62,603.66,85.6,605,106.74Z" fill="#f9b499"/><path d="M572.36,158.3a40.45,40.45,0,0,0,21.24-5.66s-5.15,10.88-21,9.4Z" fill="#f7a48b"/><path d="M594.64,135.71a42,42,0,0,0,0,5.51A14.15,14.15,0,0,0,602,153.35a25.43,25.43,0,0,0,10.94,3.47,33.17,33.17,0,0,0,12.28-2.46q10.2-3.51,20-8a4.65,4.65,0,0,0,2.47-1.91,4.75,4.75,0,0,0-.15-3.4c-.92-3-1.83-6-2.76-9.07a19.71,19.71,0,0,0-2-5,7,7,0,0,0-4.14-3.25,40.41,40.41,0,0,1-4.38-.59,5.85,5.85,0,0,1-3.25-3.4,28.64,28.64,0,0,1-1.2-4.63c-.75-3.35-2.34-6.88-5.46-8.31-1.78-.81-3.83-.83-5.65-1.63a12.08,12.08,0,0,1-5.62-5.8,79.14,79.14,0,0,0-3.79-7.32,10.44,10.44,0,0,0-4.67-4,16,16,0,0,0-3.25-2.35c-5.25-2.9-11.59-2.72-17.58-2.46S564.69,78,563.84,93.4a4.88,4.88,0,0,1,6.89-.36,4.76,4.76,0,0,1,.87,1,8.89,8.89,0,0,1,1.3,6.6c-.44,2.57-.76,5.43.64,7.64a7.59,7.59,0,0,0,7,3,22.07,22.07,0,0,0,7.62-2.47s1.94,10.07,8.62,12.49Z" fill="#2f2f2f"/><path d="M602.1,89.34a10,10,0,0,1,1.11-10.55,11.12,11.12,0,0,1,10-4,7.78,7.78,0,0,1,5.28,2.7,8,8,0,0,1,.73,7.46,10.89,10.89,0,0,1-9.07,7.32,8.68,8.68,0,0,1-9.06-6.68" fill="#2f2f2f"/><path d="M610.23,94.53a17.93,17.93,0,0,0-3.15-5.81A18.58,18.58,0,0,0,601.6,85a4.61,4.61,0,0,1,2,.36,10.31,10.31,0,0,1,4.08,2.79,10.5,10.5,0,0,1,2.39,4.33A3.58,3.58,0,0,1,610.23,94.53Z" fill="#6742c3"/><path d="M609.37,91a1.84,1.84,0,0,1,.16.61,8.72,8.72,0,0,1,.09,1.77,11.34,11.34,0,0,1-2.35,6c-3.25,4.61-11.9,7.39-19.8,4A9.38,9.38,0,0,1,583,99a39.5,39.5,0,0,1-1.74-5.4,11.82,11.82,0,0,0-5.71-7,12.75,12.75,0,0,0-6-1.63c-1.49,0-2.32.21-2.34.13a2.28,2.28,0,0,1,.59-.2,9.13,9.13,0,0,1,1.74-.26A12.63,12.63,0,0,1,582,93.37a37.37,37.37,0,0,0,1.74,5.27,8.6,8.6,0,0,0,4.09,3.9,15.41,15.41,0,0,0,5.66,1.4,18.62,18.62,0,0,0,5.47-.36A13.39,13.39,0,0,0,606.8,99a11.37,11.37,0,0,0,2.49-5.67C609.45,91.84,609.29,91,609.37,91Z" opacity="0.2"/><path d="M802.09,191.4,817.66,211l-10.18-52.45a18.71,18.71,0,0,0-4.87-8.73,20.73,20.73,0,0,0-3.44-2.9,20.39,20.39,0,0,0-5.07-2.31c-1.62-.34-2.11-2.52-.71-3.15s6.05.19,10.55,3.43,2.15-5.06,1.35-8.13-2.83-12.54-2.08-13.5c1.09-1.41,2.84-.47,3.57,2.57s3.55,12,5.14,11.6-2.71-15.86-2.71-15.86-1.45-3.15.37-3.74c3.25-1.07,6.62,15.61,6.9,17.21.19,1.1,1.95.66,1.62-.51s-4.63-15.28-1.3-16.39c2.55-.86,2.88,13.69,5.42,16.15s-1.39-11,1.08-11.76c.93-.26,1.63-.32,2.79,7.71.6,4.32-.18,11.09,1.62,19.33l.46,2.15c3.1,10,14.14,47.8,12.57,73.54a19.42,19.42,0,0,1-31.42,13.89,181.68,181.68,0,0,1-28.86-28.62Z" fill="#f7a48b"/><path d="M754.62,97.16l-5.74,66.58-33.33-2.66c-.21-3.9,0-19,0-19s-13.87-2.16-14-16c-.08-6.74.88-20.65,1.9-33.21a25.67,25.67,0,0,1,27.08-23.56h0a25.66,25.66,0,0,1,24.2,27C754.66,96.63,754.65,96.89,754.62,97.16Z" fill="#f9b499"/><path d="M715.58,141.92a32.32,32.32,0,0,0,18-5.13s-4.27,10-18.11,8.73Z" fill="#f7a48b"/><path d="M739.57,81.94h0a10.89,10.89,0,0,1,4,7.06v.27c.54,4,.44,8,1,11.94a17.87,17.87,0,0,0,4.88,10.7c1.2,1.12,3.25,1.88,4.32.57a3.4,3.4,0,0,0,.49-1.81c.75-9.56,3.35-18,3.33-28a8.45,8.45,0,0,0-3.49-6.87c-2.1-1.49-4.65-3.05-7-2s-5.33,5.45-7.14,7.3" fill="#2f2f2f"/><path d="M750,103.44c.22-.1,9.52-2.82,9.22,6.66s-9.76,7.22-9.76,7S750,103.44,750,103.44Z" fill="#f9b499"/><path d="M752.43,113.55a2.28,2.28,0,0,0,.44.26,1.61,1.61,0,0,0,1.22,0,4.1,4.1,0,0,0,2-3.61,5.34,5.34,0,0,0-.39-2.37,1.9,1.9,0,0,0-1.2-1.32.86.86,0,0,0-1,.42c-.13.26,0,.46-.13.47s-.2-.16-.1-.55a.94.94,0,0,1,.39-.58,1.23,1.23,0,0,1,.91-.22,2.34,2.34,0,0,1,1.63,1.53,5.89,5.89,0,0,1,.48,2.65,4.33,4.33,0,0,1-2.55,4,1.76,1.76,0,0,1-1.49-.31C752.43,113.73,752.39,113.57,752.43,113.55Z" fill="#f7a48b"/><path d="M747.63,75.37c2.34-3.79-4.06-9.23-8.75-10.71S728,65.47,723.39,67c-2.95,1-5.87,2.33-9,2.22a21.27,21.27,0,0,1-6-1.55,15.55,15.55,0,0,0-6.06-1.19,5.71,5.71,0,0,0-5,3.16,3.6,3.6,0,0,0,1.91,4.71,4,4,0,0,0,.49.17,4.65,4.65,0,1,0-1.24,8.63c-1.35-1-3.42.67-3.25,2.34a4.88,4.88,0,0,0,3.25,3.6,17.79,17.79,0,0,0,12.67-.2c4.09-1.38,7.88-3.53,12-5s10.84-4.13,14.92-2.7c3,1.08,5.09,4.69,6.78,3.89a5.84,5.84,0,0,0,3-4.28,16.88,16.88,0,0,0-.19-5.4" fill="#2f2f2f"/><path d="M698.61,74.23A17.85,17.85,0,0,0,700.12,76a13.07,13.07,0,0,0,5.27,3.4,12,12,0,0,0,9-.38c3.25-1.44,6-4.32,9.15-7a19.76,19.76,0,0,1,10.67-5.13A10.92,10.92,0,0,1,743.32,70a8.33,8.33,0,0,1,2.15,6.13A6.71,6.71,0,0,1,745,78c-.18.35-.28.55-.31.53a15,15,0,0,0,.36-2.31,8.26,8.26,0,0,0-2.28-5.65,10.39,10.39,0,0,0-8.5-2.74,19.12,19.12,0,0,0-10.13,5c-3.13,2.67-6,5.63-9.42,7.14a12.91,12.91,0,0,1-14.94-3.58,8.13,8.13,0,0,1-1-1.48C698.66,74.44,698.57,74.25,698.61,74.23Z" opacity="0.2"/><path d="M752.36,103a2.54,2.54,0,0,1-.76-1,6.25,6.25,0,0,1-.47-3.44c.21-3,2.91-6.34,3.25-10.55a9.54,9.54,0,0,0-1-5.67,7.32,7.32,0,0,0-3.53-3,6.24,6.24,0,0,0-3.25-.43c-.77.12-1.17.3-1.21.22a2.42,2.42,0,0,1,1.14-.57,5.87,5.87,0,0,1,3.47.16,7.62,7.62,0,0,1,4,3.25,10.08,10.08,0,0,1,1.25,6.2,17.54,17.54,0,0,1-1.84,6,18.23,18.23,0,0,0-1.7,4.57A7.55,7.55,0,0,0,752.36,103Z" opacity="0.2"/><polygon points="780.98 312.13 836.01 611.84 796.32 618.8 731.49 351.61 737.95 623.67 700.22 623.67 679.14 309.37 780.98 312.13" fill="#2f2f2f"/><path d="M775.19,214.77l2.12,49,7.85,55.87H678.9s-.23-13.19.75-31.5C681,262.36,682,228.54,682,228.54l-4,7a194.34,194.34,0,0,1-14.48-16.41l1.51-1.29L653.94,196.3l20.26-22.91a59.05,59.05,0,0,1,18.91-14.34c3.72-1.76,5.16-1.86,13.53-3,3.93-.53,6.93-.79,8.88-1a57,57,0,0,0,34.42,0h0a35.35,35.35,0,0,1,3.92.31l8.42,2a49.7,49.7,0,0,1,25.43,14.88l22.49,24.48L786,223.57Z" fill="#6742c3"/><path d="M682.14,239.45a50.73,50.73,0,0,0,.66-7.38c.31-4.57.73-10.86,1.3-17.81s1.19-13.23,1.63-17.78a54,54,0,0,0,.54-7.4,41.07,41.07,0,0,0-1.39,7.3c-.65,4.52-1.41,10.81-2,17.79s-.86,13.28-.94,17.88A39.76,39.76,0,0,0,682.14,239.45Z" opacity="0.2" style="isolation:isolate"/><path d="M773.45,195.13a19.7,19.7,0,0,0-.27,5.09c0,3.15.19,7.48.55,12.26s.83,9.1,1.27,12.21a21.27,21.27,0,0,0,1,5,22.8,22.8,0,0,0-.18-5.09c-.27-3.59-.58-7.68-.92-12.2s-.64-8.61-.9-12.21A23.84,23.84,0,0,0,773.45,195.13Z" opacity="0.2" style="isolation:isolate"/><path d="M760.36,224.43a47.94,47.94,0,0,0-1.07-7.06,27.41,27.41,0,0,0-3.25-7.66,29,29,0,0,0-7.35-8.13,28.5,28.5,0,0,0-12.12-5.35,29,29,0,0,0-15.07,1.27,28.88,28.88,0,0,0-13.3,10,28.52,28.52,0,0,0,0,33.89,25.73,25.73,0,0,0,6,6.09,26.77,26.77,0,0,0,7.25,3.91A28.87,28.87,0,0,0,756,239.19a27.47,27.47,0,0,0,3.25-7.67,48.14,48.14,0,0,0,1.07-7.06,1.85,1.85,0,0,1,0,.47v1.4a12,12,0,0,1-.18,2.24,22.39,22.39,0,0,1-.55,3,27.44,27.44,0,0,1-3.25,7.83,29.21,29.21,0,0,1-35.2,12.7,27.54,27.54,0,0,1-7.47-4,31.33,31.33,0,0,1-3.35-2.85,30.45,30.45,0,0,1-2.89-3.41,29.25,29.25,0,0,1,0-34.86,36.28,36.28,0,0,1,2.89-3.42,32.34,32.34,0,0,1,3.35-2.83,28.16,28.16,0,0,1,7.47-4,29.33,29.33,0,0,1,35.2,12.69,27.66,27.66,0,0,1,3.25,7.82,22.26,22.26,0,0,1,.55,3,12,12,0,0,1,.18,2.24V224A1.85,1.85,0,0,1,760.36,224.43Z" fill="#2f2f2f"/><path d="M751.94,224.43a41.83,41.83,0,0,0-.81-5,20.66,20.66,0,0,0-7.53-11.19,20.33,20.33,0,0,0-19.22-2.85,19.24,19.24,0,0,0-5.12,2.77,18.63,18.63,0,0,0-4.28,4.31,20.27,20.27,0,0,0,9.4,31,20.54,20.54,0,0,0,10.65.91,20.23,20.23,0,0,0,8.57-3.77,20.49,20.49,0,0,0,7.53-11.18,40.36,40.36,0,0,0,.81-5,9.84,9.84,0,0,1,0,1.33,8.89,8.89,0,0,1-.13,1.63,17.73,17.73,0,0,1-.37,2.16,20.82,20.82,0,0,1-27.34,14.68,20.22,20.22,0,0,1-5.35-2.84,19.91,19.91,0,0,1-4.45-4.48,21,21,0,1,1,37.2-17.49,15.72,15.72,0,0,1,.37,2.16,8.09,8.09,0,0,1,.13,1.63A8.38,8.38,0,0,1,751.94,224.43Z" fill="#fafafa"/><path d="M744.15,224.43a23.44,23.44,0,0,0-.57-3.09,12.76,12.76,0,0,0-4.7-6.9A12.5,12.5,0,0,0,727,212.72a12.25,12.25,0,0,0-5.77,4.36,12.38,12.38,0,0,0,0,14.71,12.25,12.25,0,0,0,5.77,4.36,12.52,12.52,0,0,0,11.79-1.72,12.81,12.81,0,0,0,4.7-6.9c.52-1.95.47-3.1.57-3.1a3.84,3.84,0,0,1,0,.83,9.81,9.81,0,0,1-.28,2.35,13.12,13.12,0,0,1-23.32,4.62,13.16,13.16,0,0,1,0-15.69,12.93,12.93,0,0,1,6.18-4.6,13.06,13.06,0,0,1,17.14,9.22,9.83,9.83,0,0,1,.28,2.36A3.43,3.43,0,0,1,744.15,224.43Z" fill="#2f2f2f"/><ellipse cx="472.51" cy="128.26" rx="23.83" ry="41.7" fill="#f9b499"/><path d="M450.19,113.62s-2.5,49.4,17.35,48.4c0,0,17.31,3.11,25.16-13.9a32.66,32.66,0,0,0,2.54-17.52c-1-8.42-4.15-21.85-13.95-27.14,0,0-19-11.86-26.37-2.7a.32.32,0,0,1-.54-.31c2.95-7.56,12.68-25.89,34.61-13.89,0,0,20.69,2.93,19,41.18l-1.7,28.33-27.19,23.44-22.46,3.36L445.7,163s8.94,10.92,15.89,8.93c0,0-15.89-13.9-14.9-34.75l.89-21.31a2.38,2.38,0,0,1,2.61-2.27Z" fill="#2f2f2f"/><polygon points="498.61 583.24 500.31 618.74 523.34 625.33 529.59 610.49 526.99 574.64 523.67 565.13 498.61 583.24" fill="#f9b499"/><path d="M533.9,613.57v34.31H461a3.53,3.53,0,0,1-3.29-4.86c2.72-6.63,9.72-17.71,26.11-18l17.45-19.22.09-.12a7.31,7.31,0,0,1,13.15,4.38v6.53a1.53,1.53,0,0,0,1.52,1.52H522a1.52,1.52,0,0,0,1.41-1c.71-1.75,2.57-5.45,6.19-6.7A3.26,3.26,0,0,1,533.9,613.57Z" fill="#6742c3"/><path d="M533.9,642.57v5.31H461a3.53,3.53,0,0,1-3.29-4.86c2.72-6.63,9.72-17.71,26.11-18,0,0,18.44,2.62,18.44,17.51Z" fill="#e6e6e6" style="isolation:isolate"/><polygon points="430.81 585.91 430.81 612.55 446.95 623.73 455.55 625.06 463.24 610.24 463.24 583.24 430.81 585.91" fill="#f9b499"/><path d="M466.38,613.57v34.31H393.51a3.54,3.54,0,0,1-3.29-4.86c2.73-6.63,9.73-17.71,26.11-18l17.46-19.22.08-.12A7.31,7.31,0,0,1,447,610.1v6.53a1.53,1.53,0,0,0,1.52,1.52h5.94a1.53,1.53,0,0,0,1.41-1c.7-1.75,2.57-5.45,6.18-6.7A3.26,3.26,0,0,1,466.38,613.57Z" fill="#6742c3"/><path d="M466.38,642.57v5.31H393.51a3.54,3.54,0,0,1-3.29-4.86c2.73-6.63,9.73-17.71,26.11-18,0,0,18.45,2.62,18.45,17.51Z" fill="#e6e6e6" style="isolation:isolate"/><path d="M369.15,647.38s-30.12,1.15-38.07,0,0-41.52,0-41.52l5.41-1.32,20.42-4.95L372.49,633a6.11,6.11,0,0,1,.27.58l1.69,3.63C381.1,649.67,369.15,647.38,369.15,647.38Z" fill="#2f2f2f"/><path d="M372.49,633C367.2,622.69,352,626.6,352,626.6c-12.83,1.89-15.51-17.76-15.51-17.76v-4.32l20.42-4.95Z" opacity="0.2" style="isolation:isolate"/><path d="M253.08,465.84c2,19.86-6,38.72-6,38.72L219.33,586l-20.85-5,4-59.57c-2-29.78,11.91-50.64,11.91-50.64-6-4-10.39-20.4-10.39-20.4h0c18.4,2.68,50.11,4.67,50.11,4.67Z" fill="#f9b499"/><path d="M352.44,586l-25.3,7.33L278.62,438.05c16.93,1.23,33-1.66,42.85-4.08h0a68.32,68.32,0,0,0,3.62,21.09c9.45,20,11.39,42.55,11.39,42.55Z" fill="#f9b499"/><path d="M331.52,431.09s-3.79,1.34-10,2.88h0c-9.89,2.42-25.92,5.31-42.85,4.08-2.87-.21-5.77-.54-8.66-1L254.08,373.5v81.56s-31.71-2-50.11-4.67c-2-.3-3.87-.58-5.49-.89h0c-1.65-.31-3.07-.63-4.21-.95,0,0-9.64-37.31-15.6-51.21l8.48-51.68,31.46-2.27,89.38-6.45Z" fill="#2f2f2f"/><path d="M238.26,354c-16.81,5.36-35.09.2-35.09.2-17.15-2.4-4.69,66.86-4.69,66.86-13.75-9.91-.29,27.62,0,28.42h0l-4.21-.95s-9.64-37.31-15.6-51.21l8.48-51.68,31.46-2.27Z" opacity="0.2" style="isolation:isolate"/><path d="M254.08,373.5l1-16.74s3,37.4,15.39,18.63c0,0-3,39.83,8.16,62.66l-8.66-1Z" opacity="0.2" style="isolation:isolate"/><path d="M303.72,220.6l6,99.35s-23,6.28-37.78,11.87A78.53,78.53,0,0,1,255,336.18a126.69,126.69,0,0,1-52-3.42L171.53,141.87s3.24-2.45,10.22-5c7.64-2.85,19.77-5.85,37.07-6,4.17,0,8.64.08,13.41.41l40.87,10.63A146.57,146.57,0,0,1,295.24,147c6.16,2.06,11.86,4.73,14.44,8l39.71,57.59Z" fill="#6742c3"/><path d="M303.72,220.6l6,99.35s-23,6.29-37.79,11.88a78,78,0,0,1-16.1,4.24,127,127,0,0,1-52.8-3.31L171.53,141.87s3.24-2.45,10.22-5c19.34,15.43,31.45,59.4,34.06,69.68.34,1.31.63,2.63.86,4,6.38,37.76-1.31,94.51-1.31,94.51-4,13.9,5,5,5,5,8.94-17.87,12.91,4,12.91,4,2,17.87,17.16,15.77,17.16,15.77,49.93-11.05,37.44-70.38,37.44-70.38-2-13.9-38.13-31.29-38.13-31.29l14.19-27.4c17.76-11.06-17.76-36-17.76-36-25.81-2.35-26.38-15.75-26.38-15.75,11.35,6.71,26.38,4.93,26.38,4.93a120.21,120.21,0,0,1-27.31-23c4.17,0,8.64.08,13.41.41l40.87,10.63A146.57,146.57,0,0,1,295.24,147a30.8,30.8,0,0,0-6.55,17.6c1.84,6.59,6.09,1.08,6.09,1.08,3-18.15,8.94,4.26,8.94,4.26,4,14.89,10.22,20.52,10.22,20.52,7.23,11.58,35.45,22.17,35.45,22.17Z" opacity="0.2" style="isolation:isolate"/><path d="M259.43,646.6a.7.7,0,0,1-.73.76l-47.61-1-30.87-.65.1-21.58c-1.27-20.45,10.21-16.29,10.21-16.29s7,5,14.29,3.64a13.71,13.71,0,0,0,8.55-5.62c1.41,4.92,9.71,13.48,14.44,18.06a11.93,11.93,0,0,0,7.31,3.28C256.66,629,259.15,643.12,259.43,646.6Z" fill="#2f2f2f"/><path d="M259.43,646.6a.7.7,0,0,1-.73.76l-47.61-1c2-7.38,12.21-15.68,12.21-15.68-5.84-1.46-14.37-13.13-18.48-19.2a13.71,13.71,0,0,0,8.55-5.62c1.41,4.92,9.71,13.48,14.44,18.06a11.93,11.93,0,0,0,7.31,3.28C256.66,629,259.15,643.12,259.43,646.6Z" opacity="0.2" style="isolation:isolate"/><path d="M146.48,647.38H80.1V600.84h29.8c.57,15.39,17.89,26.15,17.89,26.15C146.25,634.69,146.48,647.38,146.48,647.38Z" fill="#6742c3"/><path d="M146.48,647.38H80.1v-3.93h29.28s1.49-13.38,18.41-16.46C146.25,634.69,146.48,647.38,146.48,647.38Z" fill="#e6e6e6"/><path d="M215.71,647.38H149.33V600.84h29.79C179.69,616.23,197,627,197,627,215.48,634.69,215.71,647.38,215.71,647.38Z" fill="#6742c3"/><path d="M215.71,647.38H149.33v-3.93H178.6S180.09,630.07,197,627C215.48,634.69,215.71,647.38,215.71,647.38Z" fill="#e6e6e6"/><path d="M81.65,332.71,77,600.84h34.52l10.09-72.3s9.23-78.45,10.77-90.76h3.07l9.77,163.06h35.63l6.36-261-4.07-43.63Z" fill="#2f2f2f"/><path d="M97.55,342.51s39.47-.11,41,27.58c0,0,1.54,27.69-16.92,12.31,0,0,16.87,29.23,12.28,55.38h1.56l3.88,64.76s10.13-176.7,47.74-156.88l.14-5.78-4.07-43.63-88,31.62Z" opacity="0.2" style="isolation:isolate"/><path d="M133.57,113.62l2.05,20.25s7.69,29.22,18.46,30.76c0,0,10.77,0,10.77-23.07V124.15Z" fill="#f9b499"/><path d="M164.85,124.15v17.41s-28.71-.5-31.28-27.94Z" fill="#f7a48b"/><path d="M91,155.4a101.11,101.11,0,0,0-1.66,14.87,4.91,4.91,0,0,1-.83,2.6L72.63,196.7a1.53,1.53,0,0,1-2.73-.38L54,147,35.49,159.34,54,236.26s4.62,16.92,16.92,13.84c0,0,6.43-3.26,14-19.32l16.92-26.15s3.75-6.93-1.27-23.8A154.51,154.51,0,0,0,91,155.4Z" fill="#ccc"/><path d="M147.38,160.09s6.42,7.89,12.27,1.44c0,0-.89,7.44-.74,26.43l5.7,140.43a35.71,35.71,0,0,1-24.18-1.81l1.34-2,4.65-80.77S150.05,171.61,147.38,160.09Z" fill="#ccc"/><path d="M193.94,153.19s23.7,65.35,19.54,97.29L202.35,320Z" fill="#ccc"/><path d="M184.12,468s-4,15.91-22.49,14.37c0,0,19.65,20.48,21.36,31.78Z" opacity="0.2" style="isolation:isolate"/><path d="M35.49,159.34s-7.76-.27-7-17.82c0,0-7.5-10.3-1-13.93,0,0-1.24-9.79,4.91-8.25,0,0-3.07-10.77,1.54-10.77,0,0,4.62-1.53,6.15,12.31,0,0-3.31-15,2.19-14.43,0,0,3.82-2.92,3.89,21.14,0,0,2.19-10.39,6.77-10.31a.54.54,0,0,1,.54.56c-.15,3.34-1,22.76.46,29.19Z" fill="#f9b499"/><path d="M248.35,113.62s-7.18,14.64-16.12,17.62c0,0,26.14,31.18,40.87,10.63V131.35Z" fill="#f9b499"/><path d="M248.35,113.62s-2.67,5.95-5.92,9.3c0,0,13.95,17.66,30.67,19V131.35Z" fill="#f7a48b"/><path d="M267.46,229.26s-32.25.28-31.25-8.66c0,0-3-5,0-6.95,0,0-7.64-3.54-1.32-8.22l-10.44-9a3.41,3.41,0,0,1,.1-5.24h0a3.4,3.4,0,0,1,3.74-.33l21.85,11.83s4,2,1-2l-6.86-6.39a1,1,0,0,1,.72-1.75c5.08.19,16.8,2.22,25.5,16Z" fill="#f9b499"/><path d="M234.86,205.42a11.7,11.7,0,0,1,6.81,0,11.54,11.54,0,0,1-6.81,0Z" fill="#f7a48b"/><path d="M236.18,213.65a9.83,9.83,0,0,1,6.25,0,9.76,9.76,0,0,1-6.25,0Z" fill="#f7a48b"/><path d="M236.21,220.6a9.74,9.74,0,0,1,6.22,0,9.67,9.67,0,0,1-6.22,0Z" fill="#f7a48b"/><path d="M349.39,212.66s3.36,11.77,3.17,19.79l-28.79-15.33Z" fill="#999"/><path d="M309.68,320l2.76,14.69a1.2,1.2,0,0,1-.9,1.4c-4,1-18.18,4.46-31.65,8.67,0,0-44.6,20.76-92.79,1l.14-5.78,14.22-10.06s8.93,9.93,53.38,6.41c6.19-.49,12.15-2.61,17.91-5A235.59,235.59,0,0,1,309.68,320Z" fill="#ccc"/><path d="M219.33,586l-6,19.86c-8.94,11.91-22.84,2-22.84,2L198.48,581Z" fill="#e6e6e6"/><path d="M331.08,605.84s16.89,13.28,25.82-6.27L352.37,586l-25.23,7.33,3.94,12.53" fill="#e6e6e6"/><polygon points="456.62 182.87 462.58 191.81 479.08 179.51 456.62 182.87" fill="#6742c3"/><path d="M550,270.25l-24.82,42.69,2.53,31.2a6,6,0,0,1-5.06,6.4l-3.86.57h0c-17,2.52-47.91,6.81-57.32,8.11a5.31,5.31,0,0,1-4.67-1.74l-1.55-1.78a5.24,5.24,0,0,0-7.48-.41l-3.19,2.93A5.24,5.24,0,0,1,441,359.6H407.82a2.78,2.78,0,0,1-2.77-2.88,119,119,0,0,1,5.9-30.87c6.95-23.83,6.95-84.4,6.95-84.4-31.77,29.79-40.71,10.92-40.71,10.92-6-5.65-9.73-16.62-12-28.05h0c-3.71-18.71-3.6-38.66-3.6-38.66L388.11,168l4.12,40.57c2.13,10.77,3.83,9.07,3.83,9.07l30.4-32.81.06-.07,1.73-1.85v0l8.22-4,27.09,15.89,54.67-13.44c5,1.45,8.88,14.43,8.88,14.43L550,252.23S554.92,262.3,550,270.25Z" fill="#6742c3"/><polygon points="496.34 300.03 492.37 310.95 511.23 329.82 517.9 319.95 496.34 300.03" fill="#2f2f2f"/><path d="M503.43,197.71s-16,3-8.09,27.86l14.9,26.8s5.32,10.65-.67,16a8.54,8.54,0,0,1-5.15,2l-28.93,1.87s17.51,6.53,32.58,3.26c0,0-1.13,4.26-8.48,11.66a47.54,47.54,0,0,1-11.19,8.21c-2.89,1.57-6.13,4.17-5,7.65h31.06L540,259.32Z" opacity="0.2" style="isolation:isolate"/><path d="M492.37,311s-24.08,14.45-18.12,33.24a10,10,0,0,0,9.95,6.91c8.08-.33,21.19-3.82,26.32-22Z" fill="#f9b499"/><path d="M548.87,550.21a35.15,35.15,0,0,1-5.49,3.49,24.48,24.48,0,0,1-5.18,1.87c-7.33,1.87-8.91,7.35-9.17,10.73a23.69,23.69,0,0,1-4.34,12.33A23.25,23.25,0,0,1,507.26,588c-29.79,6.95-31.63-7-31.63-7-6.6,6.22-12.71,9.92-18.27,11.88-12.56,4.42-22.31-.09-28.36-4.77a34.78,34.78,0,0,1-7-7.11c-7.79-14.89-18.35-15.59-18.35-15.59-6.84-2.43-8.11-7.72-7.75-12.28a24.51,24.51,0,0,1,2.13-7.87c7.95-13.9,6-38.72,6-38.72l4.89-136,.39-10.95H441a5.24,5.24,0,0,0,3.55-1.38l3.19-2.93a5.24,5.24,0,0,1,7.48.41l1.55,1.78a5.31,5.31,0,0,0,4.67,1.74c9.41-1.3,40.29-5.59,57.32-8.11h0l7.12,36.68,15.16,78a166.62,166.62,0,0,0,3.05,16.87,241.14,241.14,0,0,0,9.43,30.93C564.41,533,556.4,544.39,548.87,550.21Z" fill="#2f2f2f"/><path d="M425.32,485.14c-2.05,18.91-6,50.69-11.39,68.07h-18v-.07a24.51,24.51,0,0,1,2.13-7.87c7.95-13.9,6-38.72,6-38.72l4.89-136,16.95,2.95.86,83.23A242.92,242.92,0,0,1,425.32,485.14Z" opacity="0.2" style="isolation:isolate"/><path d="M430.81,373.5s9.36,124.11,2.69,179.71l16.17-2h0a120,120,0,0,1,2.2-23.09c2.71-13.78,6.3-44.8.78-100l-6-51.63Z" opacity="0.2" style="isolation:isolate"/><path d="M461.59,376.48l22.12-5.93s33.34,96.72,31.92,147.63c0,0-10.62,11.06-38.29,25.53C477.34,543.71,476.48,413.22,461.59,376.48Z" opacity="0.2" style="isolation:isolate"/><path d="M544.07,482.71,540,491c-4-23.55-41.41-120.4-41.41-120.4,17.16-13.87,27.25,17.24,27.25,17.24l15.16,78A166.62,166.62,0,0,0,544.07,482.71Z" opacity="0.2" style="isolation:isolate"/><path d="M432.19,563.29,429,588.12a34.78,34.78,0,0,1-7-7.11c-7.79-14.89-18.35-15.59-18.35-15.59l10.27-4.26Z" opacity="0.2" style="isolation:isolate"/><path d="M475.81,565.13,475.63,581c-6.6,6.22-12.71,9.92-18.27,11.88a52.29,52.29,0,0,0-6.69-27.76Z" opacity="0.2" style="isolation:isolate"/><path d="M548.87,550.21a35.15,35.15,0,0,1-5.49,3.49,24.48,24.48,0,0,1-5.18,1.87c-7.33,1.87-8.91,7.35-9.17,10.73a23.69,23.69,0,0,1-4.34,12.33,22.66,22.66,0,0,1-9,7.28c-.24-2-5-42,11.46-57.52L542,502.58Z" opacity="0.2" style="isolation:isolate"/><polygon points="361.6 185.66 361.6 176.58 386.13 159.04 388.12 167.98 361.6 185.66" fill="#2f2f2f"/><path d="M364.29,174.66V159a36.37,36.37,0,0,1-11.88-10.37,17.4,17.4,0,0,0-2.85-3.09l-11.89-10.07a3.38,3.38,0,0,1-.54-4.6h0a3.39,3.39,0,0,1,4.66-.76l3.72,2.58-7.24-8.37a2.93,2.93,0,0,1,.12-4h0a3,3,0,0,1,3.77-.38l8.24,5.62a1.47,1.47,0,0,0,1.84-.15h0a1.48,1.48,0,0,0-.1-2.22L347,119.18a3.59,3.59,0,0,1,0-5.64h0a3.59,3.59,0,0,1,4.62.16l19,17.12s-2.24-8.37,1.58-12.37a1.88,1.88,0,0,1,3.18.75c.68,2.4,2.07,6,4.59,8.21a13.72,13.72,0,0,1,3.2,3.84c1.62,3.05,3.52,8.53,2.93,16.87V159Z" fill="#f9b499"/><path d="M345.51,132.73a33.15,33.15,0,0,1,8.85,7.45,32.82,32.82,0,0,1-8.85-7.45Z" fill="#f7a48b"/><path d="M428.25,182.89c-.44,1-17.21,38-10.35,58.56-31.77,29.79-40.71,10.92-40.71,10.92-6-5.65-9.73-16.62-12-28.05.42.77,21.5,39.15,37.11,18.43a27.26,27.26,0,0,0,4.51-9.59c2.46-9.53,10.13-36.94,19.64-48.35l.06-.07a21.08,21.08,0,0,1,1.74-1.87Z" opacity="0.2" style="isolation:isolate"/><path d="M460.59,201.74c-4.53,21.79-7.88,43.92-8.61,66.19-.13,4.59,0,9.69.16,14.3-.07,15.69-.22,36.81-.42,52.57l-.3,19.12-.18-19.11c-.09-15.8-.1-36.84-.07-52.55-.09-2.82-.29-6.78-.21-9.57.25-23.92,4.14-47.72,9.63-70.95Z" opacity="0.2" style="isolation:isolate"/><ellipse cx="156" cy="88.87" rx="28.07" ry="41.15" fill="#f9b499"/><path d="M109.47,83.1s-.4,25,12.1,23.26c0,0,9.43,1.35,14.05-24.8,0,0,35.38,0,43.07-27.69a17.4,17.4,0,0,0-1.73-2.5A45.9,45.9,0,0,0,157.37,36.8c-9-3.49-15.6-4.46-25.47,6.3,0,0-14.74,12.31-16.28,36.92C115.62,80,117.16,95.41,109.47,83.1Z" fill="#2f2f2f"/><path d="M178.69,53.87s11.92-1.49,12.3,36.58a13.83,13.83,0,0,1-1.13,5.75c-1.11,2.48-3.22,5.24-7.13,5.28,0,0,6.35-20.93-6.54-41.19A47.25,47.25,0,0,0,178.69,53.87Z" fill="#2f2f2f"/><ellipse cx="126.89" cy="101.48" rx="6.92" ry="9.35" transform="translate(-24.39 42.19) rotate(-17.25)" fill="#f9b499"/><path d="M136.24,136.05s-32.93,7-45.23,19.35c0,0,16.92,35.38,10.76,49.23L84.85,230.78s5.58,54.37-5.83,88.79a13.3,13.3,0,0,0,1.72,11.95c4.31,6,13.19,13.46,30.26,11.56,0,0,20-1.54,30.77-18.46,0,0,9.68-142.92,5.61-164.53C147.38,160.09,141.48,153.61,136.24,136.05Z" fill="#6742c3"/><path d="M133.57,136.67s-10.11-10.52-28.24-5.29a7.7,7.7,0,0,0-5.42,5.88c-.82,4.15-1,9.71,3.68,9.77,0,0,.16,5.64,2.91,6.63a2.23,2.23,0,0,0,2.89-2.25c-.07-2.7,0-7.92,1.09-11.63a.88.88,0,0,1,1.72.36c-.6,5.31-1,13.8,2.61,13.05,0,0,3.11,2.83,4.18-10.19a3.21,3.21,0,0,1,2.33-2.81Z" fill="#f9b499"/><path d="M103.59,147c-.35-5.21,1.66-10.93,5.87-14.19A35.37,35.37,0,0,0,103.59,147Z" fill="#f7a48b"/><path d="M164.85,141.56s-6.29,11.63-6.29,37.78l6,148.14a12.05,12.05,0,0,0,8.7,11.12c4.72,1.34,11.59,2,21,.07a10.65,10.65,0,0,0,8.47-11l-8.8-174.52S186.52,140.7,164.85,141.56Z" fill="#6742c3"/><path d="M54,147s-14.11,4.07-17.9-.51a3.69,3.69,0,0,1-.75-1.77c-.34-1.92-.73-6.51,2.79-8.7,0,0,7.21-4.67,8.09-8.46l-.06-4.43a25.13,25.13,0,0,1-4.83,5.93,2.93,2.93,0,0,1-4.4-1l-4.48-8.75s6.2,16,0,16.71c0,0,.43,5.31-3.87,5.47,0,0-1.65,15.63,7,17.82Z" fill="#f7a48b"/><ellipse cx="270.46" cy="89.05" rx="24.33" ry="35.25" fill="#f9b499"/><path d="M327.14,65.49,223.3,86.56c6-33.75,27.8-43.68,27.8-43.68,3.38-1.65,13.42-3.76,16.21-4.43,25.86-6.24,27.47,25.38,27.47,25.38,20-4.26,27.79-3.41,30.76-1.73C328.06,63.5,327.14,65.49,327.14,65.49Z" fill="#6742c3"/><path d="M282.18,70.43c10.22-27.06-14.87-32-14.87-32,25.86-6.24,27.47,25.38,27.47,25.38,20-4.26,27.79-3.41,30.76-1.73Z" opacity="0.2" style="isolation:isolate"/><path d="M235.39,103.46l11.49-5.74s.71-14.38,1.47-16.24L227.9,85.63s.36,13.84,7.31,17.81" fill="#2f2f2f"/><path d="M248.35,103.74s8.71,12.89,22.11,13.75l12.41-1.14s14.84-5.24,15.87,3.11a7.32,7.32,0,0,1-.44,3.37c-1.7,4.76-8.92,18.33-33.16,4.76a105.49,105.49,0,0,1-11.35-6,13.33,13.33,0,0,1-6.17-13.73Z" fill="#2f2f2f"/><ellipse cx="241.67" cy="101.95" rx="6.45" ry="8.44" transform="translate(-17.12 59.19) rotate(-13.49)" fill="#f9b499"/><path d="M270.46,208.55l-3.48,24s77.73,42.18,85.53,8.18c0,0,8.8-24.07-39.85-24.07C312.66,216.63,288.83,214.64,270.46,208.55Z" fill="#ccc"/><path d="M456.62,182.87l6,8.94,16.5-12.3,27.19-23.44s1,7,7,9.92c0,0,13.41,8.8,1.58,19.46a25.57,25.57,0,0,1-11.08,5.72l-43.13,10.57-35.23-20.55a8,8,0,0,1-3.19-10.32,24,24,0,0,1,6.65-7.85s6.95-8,16.88,0Z" fill="#6742c3"/><path d="M456.62,182.87l6,8.94,16.5-12.3,27.19-23.44s1,7,7,9.92c0,0,13.41,8.8,1.58,19.46a25.57,25.57,0,0,1-11.08,5.72l-43.13,10.57-35.23-20.55a8,8,0,0,1-3.19-10.32,24,24,0,0,1,6.65-7.85s6.95-8,16.88,0Z" fill="#fff" opacity="0.3" style="isolation:isolate"/><path d="M517.9,320l7.23-7L550,270.25c1-2,1.06-2.08,1.06-2.08,3-8-1.06-15.94-1.06-15.94l-21.29-52.64c-15.34-13.07-25.23-1.88-25.23-1.88-12.77,9.87-4.11,26.86-4.11,26.86l16,29.38c5.11,6.53,1.85,12.32,1.85,12.32L496.34,300Z" fill="#6742c3"/></svg>