<svg id="aa6d71c4-2f25-4df4-abf7-3523b82a53d5" data-name="Layer 1" xmlns="http://www.w3.org/2000/svg" width="865.76" height="682.89" viewBox="0 0 865.76 682.89"><path d="M120.38,665S19.82,583.79,31.65,498.55s108.45-14.21,132.11-91.33S100.2,229.33,179.3,159s152.06-3.4,201.35-17.61S426,17.55,538.39,15.52,744,82.5,702.3,280.38s86.5,220.2,104.25,291.23-25.95,95.81-25.95,95.81Z" fill="#1c0ebd"/><path d="M120.38,665S19.82,583.79,31.65,498.55s108.45-14.21,132.11-91.33S100.2,229.33,179.3,159s152.06-3.4,201.35-17.61S426,17.55,538.39,15.52,744,82.5,702.3,280.38s86.5,220.2,104.25,291.23-25.95,95.81-25.95,95.81Z" fill="#fff" opacity="0.7"/><g id="a797cd7f-142e-4d70-87df-41d56a08bea7" data-name="freepik--Plants--inject-188"><g opacity="0.15"><path d="M522.17,415.49c-5,4.92-19.83,10.14-19.84,10.14s-.52-10.81-.46-11.51c.64-8,6.57-23,15.3-25.07,6.34-1.47,11.9,3.24,12.68,9.38S526.45,411.29,522.17,415.49Z"/><path d="M513.29,615c.06.36.14.69.2,1l-4.66,4.3c-.25-1.43-.52-2.89-.77-4.39-.73-4.24-1.43-8.8-2.12-13.49a112.74,112.74,0,0,1-13.49-1c-2.54,6.28-11.42,15.92-12.57,17.15,2.89,3.1,5.74,6.08,8.48,8.87,1.88,1.92,3.69,3.75,5.47,5.5l-5.56,2.13c-1.26-1.27-2.47-2.54-3.74-4-2.95-3.13-6.06-6.54-9.21-10.08-1.44.94-13.33,8.48-19.85,9.42-5.92.85-13.7.3-18.19-4.16s-4.75-11.67.23-15.78c6.92-5.69,22.48-1.26,29.18,3,.39.25,4.4,3.5,6.9,5.59-1.27-1.46-2.54-2.85-3.81-4.36-2.54-3-5.07-6-7.77-9.26q-1.87-2.43-3.81-4.91c-1.27-1.61-2.45-3.48-3.7-5.23-2.82-4.12-5.47-8.42-8-12.82-2.62,2.26-12,10.15-17.76,11.89s-13.48,2.37-18.61-1.35-6.47-10.82-2.17-15.64c6-6.68,22-4.7,29.34-1.47.46.2,5.44,3.13,8.16,4.78-1.54-2.65-3.07-5.3-4.53-8-4.2-7.9-8.21-16-12.25-24.1l-3.81-7.39c-.92.81-11.85,10.42-18.28,12.39-5.72,1.74-13.49,2.36-18.6-1.36s-6.47-10.82-2.17-15.64c6-6.68,22-4.7,29.32-1.46.56.24,7.73,4.46,9.5,5.61-2.76-5.42-5.56-10.81-8.55-16a184.84,184.84,0,0,0-13.28-20.3c-.43.38-11.78,10.47-18.37,12.47-5.73,1.74-13.49,2.37-18.61-1.35s-6.47-10.81-2.16-15.63c6-6.69,22-4.72,29.33-1.48.57.26,8.28,4.8,9.62,5.71-.29-.37-.53-.78-.82-1.15a135.51,135.51,0,0,0-16.71-17.58c-3.32-3-6.67-5.67-10-8.21-1.92,2.09-10.81,11.58-16.49,14-5.49,2.36-13.15,3.81-18.64.7s-7.62-10.05-3.81-15.31c5.2-7.29,21.36-7.1,29-4.68.42.14,4.49,1.94,7.44,3.3C371,474.2,369.49,473,368,472c-5.52-3.93-10.82-7.19-15.53-10.05-2.7-1.59-5.16-3-7.49-4.27-3,1.08-14.93,5.25-21.05,4.81s-13.43-2.67-16.87-8-2.13-12.42,3.62-15.36c8-4.09,22.23,3.54,27.9,9.21.49.48,7.25,9,7.09,9.08l-.17.06c2.25,1.18,4.66,2.54,7.26,4,4.8,2.75,10.15,5.9,15.81,9.73a191,191,0,0,1,17.57,13.21,138,138,0,0,1,17.35,17.43c.06.07.11.15.17.23-1-2.44-3.5-9.34-3.62-9.88-1.88-7.79-.93-23.92,6.72-28.59,5.5-3.37,12.3-.65,15,4.95s.73,13.23-2,18.54c-3.08,6-14.56,15-15.48,15.75a187.93,187.93,0,0,1,14.21,20.64c2.54,4.17,4.91,8.45,7.27,12.77-.78-2.13-1.47-4-1.53-4.32-1.88-7.78-.93-23.91,6.72-28.59,5.5-3.36,12.32-.64,15,4.95s.73,13.24-2,18.54-12.42,13.3-15,15.37c.88,1.66,1.79,3.33,2.67,5,4.22,8,8.39,16,12.68,23.78,1.52,2.73,3.12,5.35,4.72,8a30,30,0,0,1-1.27-3.8c-1.88-7.78-.92-23.91,6.72-28.59,5.52-3.37,12.32-.64,15,4.94s.72,13.24-2,18.56S456,582.55,452.87,585c1.72,2.65,3.43,5.31,5.22,7.81,1.26,1.68,2.34,3.36,3.7,5l3.81,4.82c2.53,3,5.22,6.06,7.81,8.88,1.79,2,3.52,3.8,5.28,5.72-1.55-2.69-4.48-8.05-4.67-8.52A41.13,41.13,0,0,1,472,588a11.24,11.24,0,0,1-.69-2.25c-1.27-6.06,2.47-12.35,8.87-13,8.88-.94,19.49,11.3,22.72,18.62.19.43,1.74,5.34,2.67,8.46-.26-1.91-.55-3.8-.79-5.74-.52-3.91-.93-7.82-1.38-12-.14-2-.3-4.08-.45-6.16s-.12-4.26-.2-6.41c-.08-5,.09-10,.37-15.14-3.41.46-15.58,1.86-21.34.15S469.24,549,467,543.08s.58-12.6,6.82-14.24c8.66-2.28,21,8.21,25.28,15,.27.42,2.81,5.6,4.16,8.48.19-3,.37-6.11.67-9.2.85-8.88,2-17.91,3.08-26.89.35-2.76.65-5.5,1-8.24-1.27.17-15.64,2.16-22.08.24-5.74-1.7-12.56-5.46-14.78-11.41s.57-12.6,6.82-14.23c8.67-2.29,21,8.2,25.27,14.95.33.51,4,8,4.82,9.92.7-6.05,1.27-12.09,1.71-18.06a184.82,184.82,0,0,0,.09-24.23c-.56.09-15.6,2.23-22.21.28-5.72-1.71-12.54-5.47-14.76-11.41s.57-12.59,6.81-14.24c8.67-2.28,21,8.22,25.28,15,.34.53,4.26,8.57,4.87,10.07v-1.42a138.49,138.49,0,0,0-4.3-23.9c-1.12-4.34-2.44-8.42-3.81-12.35-2.76.68-15.41,3.69-21.56,2.54-5.87-1.07-13.08-4.06-15.93-9.71s-.81-12.58,5.21-14.89c8.36-3.22,21.74,5.86,26.76,12.09.28.34,2.68,4.08,4.38,6.85-.65-1.78-1.27-3.62-1.93-5.3-2.43-6.35-5.07-12-7.4-16.95-1.37-2.82-2.67-5.34-3.9-7.69-3.06-.73-15.35-3.86-20.19-7.61s-9.74-9.62-9.68-15.95S462.56,359,469,359.68c8.88,1,16.59,15.22,18.19,23.06.13.68,1.07,11.53.9,11.49h-.18c1.27,2.23,2.54,4.64,3.89,7.31,2.53,4.93,5.21,10.54,7.8,16.83a187.27,187.27,0,0,1,7.35,20.71,137.46,137.46,0,0,1,4.87,24.1v.29c.54-2.54,2.24-9.72,2.44-10.25,2.73-7.52,12.42-20.46,21.37-20.14,6.46.24,10.63,6.27,9.78,12.39s-6.71,11.42-11.92,14.36c-5.89,3.3-20.45,4.52-21.57,4.6a185.5,185.5,0,0,1,.47,25.06c-.2,4.85-.55,9.75-1,14.66.52-2.22,1-4.19,1.1-4.45,2.73-7.54,12.42-20.46,21.37-20.15,6.46.25,10.63,6.27,9.78,12.4S537,503.36,531.74,506.3s-17.76,4.25-21,4.55c-.19,1.89-.34,3.8-.53,5.64-.9,9-1.85,18-2.54,26.85-.22,3.11-.34,6.19-.47,9.27.47-2,.88-3.61,1-3.8,2.73-7.52,12.43-20.46,21.38-20.13,6.45.23,10.62,6.25,9.77,12.39s-6.7,11.42-11.91,14.35-16.49,4.12-20.4,4.49v9.38c.12,2.1.09,4.11.33,6.21s.4,4.12.59,6.16c.5,3.89,1,7.93,1.6,11.73.39,2.64.82,5.15,1.26,7.69.19-3.11.7-9.18.8-9.69,1.56-7.84,9.19-22.1,18.09-23.14,6.34-.75,11.42,4.58,11.53,10.77s-4.88,12.32-9.6,16c-5.19,4-18.84,7.38-20.54,7.78Q512.07,609.24,513.29,615Z"/><path d="M374.82,475.58c-.11.13-6.35-8.75-6.75-9.34-3.81-7-7.21-22.84-1.07-29.35,4.43-4.71,11.71-3.87,15.77.81s4.2,12.57,3,18.41C384.27,463,374.82,475.57,374.82,475.58Z"/></g><g opacity="0.15"><path d="M654.71,177.37c4.15,4.09,16.49,8.49,16.49,8.49s.43-9,.38-9.57c-.53-6.62-5.46-19.11-12.68-20.81a8.8,8.8,0,0,0-10.4,6.84c-.06.31-.11.62-.14.93C647.64,168.47,651.17,173.88,654.71,177.37Z"/><path d="M662.16,343a5.15,5.15,0,0,1-.17.87l3.87,3.57c.22-1.2.42-2.4.64-3.64.61-3.54,1.19-7.32,1.76-11.2a95.6,95.6,0,0,0,11.21-.84C681.55,337,689,345,689.91,346c-2.41,2.54-4.78,5.07-7,7.37-1.56,1.6-3.07,3.11-4.54,4.57l4.62,1.76,3.1-3.27c2.46-2.6,5.08-5.45,7.61-8.38,1.21.78,11.08,7,16.49,7.83,4.91.7,11.42.24,15.11-3.46a8.81,8.81,0,0,0,.53-12.44,8.2,8.2,0,0,0-.67-.65c-5.75-4.73-18.67-1.11-24.27,2.54-.33.21-3.65,2.9-5.73,4.64,1.07-1.21,2.11-2.36,3.19-3.62,2.15-2.46,4.22-5,6.46-7.7l3.14-4.07c1.08-1.33,2-2.89,3.08-4.34,2.33-3.42,4.53-7,6.67-10.65,2.16,1.88,9.93,8.42,14.71,9.88s11.2,2,15.45-1.13a8.88,8.88,0,0,0,2.29-12.35,7.25,7.25,0,0,0-.49-.64c-5-5.54-18.29-3.9-24.36-1.27-.38.18-4.52,2.6-6.77,4,1.26-2.2,2.53-4.4,3.8-6.67,3.5-6.57,6.82-13.32,10.15-20.05,1-2.06,2.07-4.1,3.11-6.14.76.67,9.84,8.66,15.22,10.29,4.74,1.44,11.2,2,15.45-1.12a8.88,8.88,0,0,0,2.28-12.35c-.15-.22-.31-.43-.48-.64-5-5.55-18.28-3.92-24.36-1.27-.45.21-6.41,3.71-7.89,4.66,2.3-4.5,4.62-9,7.09-13.28a154.73,154.73,0,0,1,11-16.83c.35.31,9.79,8.7,15.22,10.36,4.74,1.45,11.2,2,15.45-1.12a8.79,8.79,0,0,0,2.38-12.21,7.38,7.38,0,0,0-.58-.77c-5-5.56-18.28-3.92-24.35-1.27-.49.2-6.89,4-8,4.74.24-.32.46-.66.7-1a111.25,111.25,0,0,1,13.95-14.59c2.77-2.54,5.55-4.72,8.31-6.82,1.59,1.73,9,9.61,13.74,11.65,4.56,2,10.92,3.19,15.49.59a8.88,8.88,0,0,0,3.59-12c-.12-.23-.25-.44-.39-.66-4.32-6.06-17.75-5.9-24.1-3.88-.34.1-3.72,1.61-6.17,2.74,1.27-.94,2.53-1.91,3.8-2.79,4.58-3.26,9-6,12.9-8.33,2.23-1.27,4.29-2.54,6.22-3.55,2.46.88,12.4,4.35,17.48,4s11.16-2.21,14-6.62a8.87,8.87,0,0,0-2.32-12.34c-.22-.15-.45-.29-.68-.42-6.64-3.39-18.47,2.94-23.17,7.61-.4.4-6,7.49-5.89,7.61h.15c-1.88,1-3.88,2.05-6,3.28-4,2.29-8.45,4.91-13.11,8.08a157.59,157.59,0,0,0-14.6,11A116.63,116.63,0,0,0,753.46,249l-.15.2c.82-2,2.9-7.76,3-8.22,1.56-6.46.78-19.86-5.58-23.74a8.88,8.88,0,0,0-12.09,3.38c-.13.24-.25.48-.36.73-2.27,4.74-.6,11,1.68,15.39,2.54,5,12.11,12.5,12.87,13.09A158,158,0,0,0,741,266.92c-2.08,3.46-4.07,7-6,10.62.65-1.78,1.27-3.36,1.27-3.61,1.56-6.45.76-19.85-5.58-23.73a8.88,8.88,0,0,0-12.09,3.38c-.13.24-.26.48-.37.72-2.27,4.74-.59,11,1.68,15.41s10.31,11.05,12.45,12.76c-.73,1.38-1.48,2.75-2.22,4.15-3.5,6.64-7,13.3-10.56,19.73-1.27,2.28-2.6,4.46-3.92,6.65.57-1.57,1-2.9,1.09-3.12,1.56-6.46.77-19.86-5.58-23.74a8.87,8.87,0,0,0-12.09,3.38c-.13.24-.26.48-.37.73-2.27,4.74-.59,11,1.69,15.39s9.53,10.42,12.06,12.46c-1.42,2.21-2.85,4.41-4.32,6.48-1,1.38-2,2.8-3.08,4.14l-3.3,4.17c-2.15,2.54-4.34,5.07-6.48,7.39-1.49,1.65-2.93,3.2-4.38,4.76,1.27-2.24,3.72-6.68,3.88-7.08a34.25,34.25,0,0,0,1.66-17.17,10.1,10.1,0,0,0,.57-1.87,8.87,8.87,0,0,0-6.52-10.72c-.3-.07-.6-.13-.9-.17-7.4-.77-16.17,9.39-18.86,15.46-.16.36-1.44,4.44-2.22,7,.22-1.59.46-3.14.66-4.77.43-3.25.78-6.48,1.14-10,.13-1.69.25-3.4.37-5.08s.12-3.54.18-5.32c.06-4.14-.08-8.34-.32-12.56,2.84.37,12.94,1.55,17.76.11s10.43-4.54,12.28-9.45a8.88,8.88,0,0,0-4.9-11.56c-.25-.1-.51-.19-.77-.27-7.19-1.89-17.4,6.82-21,12.43-.22.34-2.34,4.65-3.45,7-.17-2.54-.32-5.07-.56-7.61-.71-7.41-1.65-14.88-2.54-22.34-.28-2.28-.53-4.56-.78-6.83,1,.13,13,1.78,18.34.2,4.75-1.42,10.42-4.54,12.26-9.46a8.81,8.81,0,0,0-4.76-11.51c-.3-.12-.6-.23-.91-.32-7.19-1.89-17.4,6.83-21,12.42-.28.42-3.31,6.62-4,8.25-.57-5.08-1.09-10-1.4-15a154.27,154.27,0,0,1-.13-20.17c.47.08,13,1.86,18.44.23,4.76-1.42,10.43-4.54,12.27-9.46A8.79,8.79,0,0,0,691,198c-.31-.12-.62-.23-.93-.32-7.19-1.9-17.4,6.82-21,12.42-.28.44-3.54,7.11-4,8.37v-1.18a113.35,113.35,0,0,1,3.57-19.85c.92-3.6,2-7,3.16-10.28,2.29.57,12.79,3.07,17.89,2.15,4.89-.88,10.87-3.36,13.23-8.06a8.78,8.78,0,0,0-3.45-11.94,7,7,0,0,0-.87-.42c-6.95-2.68-18,4.87-22.23,10-.22.29-2.22,3.4-3.64,5.69.54-1.47,1.07-3,1.61-4.4,2-5.25,4.19-9.93,6.16-14.06,1.13-2.35,2.2-4.44,3.22-6.35,2.53-.6,12.76-3.2,16.78-6.34s8.09-8,8-13.24a8.8,8.8,0,0,0-8.57-9c-.31,0-.62,0-.93,0-7.4.83-13.78,12.69-15.11,19.16-.11.56-.87,9.56-.75,9.54h.15c-1,1.85-2.09,3.8-3.22,6.07-2,4.1-4.33,8.75-6.48,14a156.92,156.92,0,0,0-6.11,17.2,115.72,115.72,0,0,0-4.05,20,1,1,0,0,1,0,.25c-.43-2.14-1.85-8.08-2-8.52-2.25-6.24-10.31-17-17.75-16.72a8.8,8.8,0,0,0-8.23,9.34,7.84,7.84,0,0,0,.11,1c.71,5.2,5.56,9.49,9.89,11.91,4.89,2.74,17,3.81,18,3.81A153.58,153.58,0,0,0,663,239c.18,4,.47,8.1.82,12.17-.44-1.84-.85-3.47-.92-3.7-2.27-6.24-10.32-17-17.76-16.72a8.88,8.88,0,0,0-8.21,9.5c0,.27.05.53.09.79.72,5.21,5.57,9.5,9.89,11.92s14.71,3.53,17.43,3.81c.15,1.56.28,3.12.45,4.68.74,7.48,1.53,14.95,2.06,22.3.21,2.53.3,5.15.4,7.7-.4-1.63-.74-3-.8-3.2-2.27-6.25-10.33-17-17.76-16.73a8.87,8.87,0,0,0-8.21,9.5c0,.27,0,.53.09.8.73,5.2,5.57,9.5,9.9,11.92s13.69,3.41,16.93,3.73v7.79c-.1,1.74-.08,3.41-.28,5.15s-.32,3.42-.47,5.07c-.43,3.25-.85,6.6-1.34,9.76-.32,2.19-.68,4.27-1,6.34-.16-2.54-.58-7.61-.67-8-1.27-6.52-7.61-18.36-15-19.22a8.8,8.8,0,0,0-9.54,8,7.6,7.6,0,0,0,0,.95c-.09,5.25,4,10.24,8,13.28,4.31,3.36,15.65,6.14,17.06,6.47C663.39,336.49,662.78,339.88,662.16,343Z"/><path d="M777.11,227.28c.09.1,5.33-7.27,5.61-7.76,3.21-5.82,6-19,.89-24.38a8.81,8.81,0,0,0-12.45,0c-.23.23-.44.47-.64.71-3.45,4-3.49,10.44-2.46,15.3C769.26,216.82,777.11,227.27,777.11,227.28Z"/></g></g><path d="M303.35,574.69s-48.65-4.31-93.42,8.57a108.49,108.49,0,0,0-18.4,7.23c-18.12,9-70.7,33.08-115.63,33.08v12s64.09-4,102.71-27.35a108.8,108.8,0,0,1,28.29-12A290.64,290.64,0,0,1,303.35,588,38.23,38.23,0,0,1,303.35,574.69Z" fill="#6742c3"/><path d="M662.47,635a2.32,2.32,0,0,1-2.33,2.33H424.24a2.34,2.34,0,0,1-1.65-.68,2.3,2.3,0,0,1-.69-1.65,2.34,2.34,0,0,1,2-2.31l46.28-6.57,1.56-.26a37.86,37.86,0,0,0,30.84-37.38V560.07l39.6.26,39.6-.26V588.5a37.85,37.85,0,0,0,30.83,37.38l1.57.26,46.28,6.57A2.34,2.34,0,0,1,662.47,635Z" fill="#1c0ebd"/><path d="M510.47,637.35s64.25-3.55,96.84-12.84c0,0,2.82,1.06,13.3,2.54l39.86,5.66a2.33,2.33,0,0,1-.33,4.64Z" fill="#fff" opacity="0.2"/><path d="M688.24,576s121.11,3.82,123,33.88c0,0,3.34,28.69-70.63,27.47L632.34,637l35.28-11.87s108.84,7.13,129.7-10a4.73,4.73,0,0,0-.3-7.61c-7.35-5-31.23-13.73-108.78-18.64L677.17,576Z" fill="#6742c3"/><path d="M356.55,266.77l420.35.57A11.7,11.7,0,0,1,788.46,280L768.79,547.74a15,15,0,0,1-14.94,14L332.22,559a6.2,6.2,0,0,1-6.09-6.64l17.46-273.25A13.05,13.05,0,0,1,356.55,266.77Z" fill="#6742c3"/><path d="M352.12,266.74l420.35.6A11.62,11.62,0,0,1,784,279.82l-19.65,264a14.89,14.89,0,0,1-14.94,13.78l-421.63-2.76a6.14,6.14,0,0,1-6.1-6.54l17.44-269.47A13,13,0,0,1,352.12,266.74Z" fill="#1c0ebd"/><polygon points="349.2 277.5 774.21 277.5 755.38 545.6 333.06 545.6 349.2 277.5" fill="#fff"/><path d="M395.58,635.52c-12.88.81-24.88-23.11-26.8-53.43-1.65-26.11,4.71-48.46,14.74-54.68l-32.59,2.16s-44.31,2.89-48.18,49.7h0c-.05.44-.08.88-.11,1.33C302.64,580.61,297.09,652.89,395.58,635.52Z" fill="#1c0ebd"/><path d="M395.58,635.52c-12.88.81-24.88-23.11-26.8-53.43-1.65-26.11,4.71-48.46,14.74-54.68l-32.59,2.16s-44.31,2.89-48.18,49.7h0c-.05.44-.08.88-.11,1.33C302.64,580.61,297.09,652.89,395.58,635.52Z" opacity="0.1"/><path d="M321.71,624.85s-24.87-31.94-8.51-60.31c0,0,16.92-26.23,55.32-24.2,0,0-19.86,58.26,13.84,97l13.22-1.87s-19.07,4.83-26.8-53.43c0,0-2.4-39,14.74-54.68l-32.59,2.16s-44-.49-48.29,51C302.64,580.61,300.32,607.71,321.71,624.85Z" opacity="0.2"/><path d="M717.33,385.16v-.05a38,38,0,0,0-2.4-13.33l8.68-6.21-7.42-12.29-9.78,5.14a38.06,38.06,0,0,0-9.91-7.27l1.57-10.54-13.88-2.47L680.58,347c-.45,0-.9,0-1.36,0a38,38,0,0,0-12.41,2.08l-4.62-6.94-13.43,8.29,4,7.28a38.17,38.17,0,0,0-8.82,13l-7.89-2-5,15.43L641,387c-.85,5.43,2.5,11.49,2.5,11.49l-9.07,6.79,7.72,13.15,10.36-6.12a38.19,38.19,0,0,0,8.74,6.42l-1.68,11.7L673.33,433l2.9-9.91c1,.07,2,.12,3,.12a37.88,37.88,0,0,0,10.44-1.46l5.1,7.25L709,420.27l-4.43-6.76a38.16,38.16,0,0,0,9.09-12.17l8.49,1.66,3.42-15.14Zm-38.54,21.77a21.33,21.33,0,1,1,21.32-21.32A21.33,21.33,0,0,1,678.79,406.93Z" fill="#1c0ebd"/><path d="M670.06,326.68a12.94,12.94,0,0,0,.89-4.53l3.53-.89-.84-4.82-3.74.41a12.73,12.73,0,0,0-2.24-3.53l1.81-3.15-4.1-2.5L663.12,310l-.43-.18a12.93,12.93,0,0,0-4.19-.88l-.61-2.77-5.29,1L653,310a12.94,12.94,0,0,0-4.41,3l-2.26-1.61-3.49,4.27,2.81,2.15a7.22,7.22,0,0,0-.63,3.95l-3.72,1,.82,5.12,4-.65a12.68,12.68,0,0,0,2,3.11l-2,3.51,4,2.51,2.15-2.78c.31.15.62.29.94.41a12.85,12.85,0,0,0,3.49.83l.72,2.93,5.61-1-.57-2.69a13,13,0,0,0,4.4-2.73l2.48,1.57,3-4.38-2.3-1.88Zm-12.27,2.58a7.26,7.26,0,1,1,7.26-7.26A7.26,7.26,0,0,1,657.79,329.26Z" fill="#d1d3d4"/><path d="M636.75,347.85v0A28.1,28.1,0,0,0,635,338l6.4-4.58-5.48-9.06-7.21,3.78a28.2,28.2,0,0,0-7.3-5.36l1.15-7.77-10.24-1.82-2.66,6.56c-.33,0-.67,0-1,0a28.3,28.3,0,0,0-9.16,1.53l-3.41-5.11-9.91,6.11,3,5.37a28.08,28.08,0,0,0-6.51,9.6l-5.82-1.48L573.1,347.1l7.37,2.11c-.63,4,1.84,8.47,1.84,8.47l-6.69,5,5.7,9.69,7.64-4.51a28.12,28.12,0,0,0,6.44,4.74l-1.23,8.63,10.12,1.89,2.14-7.31c.73.06,1.46.09,2.21.09a28.36,28.36,0,0,0,7.7-1.07l3.76,5.34,10.53-6.44-3.26-5a28.29,28.29,0,0,0,6.7-9l6.26,1.22,2.53-11.17Zm-28.43,16.06a15.73,15.73,0,1,1,15.73-15.73A15.73,15.73,0,0,1,608.32,363.91Z" fill="#d1d3d4"/><path d="M564,370.22a18.09,18.09,0,0,0,1.16-6.38l4.94-1.33-1.28-6.76-5.24.66a18.37,18.37,0,0,0-3.23-4.92l2.47-4.47L557,343.59,553.93,347l-.61-.24a18.13,18.13,0,0,0-5.92-1.15l-.91-3.89-7.41,1.47.57,3.94a18.14,18.14,0,0,0-6.14,4.36l-3.21-2.22-4.83,6.09,4,3a10.13,10.13,0,0,0-.8,5.57l-5.21,1.53,1.26,7.2,5.68-1a18.25,18.25,0,0,0,2.84,4.34l-2.71,5,5.73,3.46,3-4c.43.2.87.39,1.32.56a18.54,18.54,0,0,0,4.93,1.1l1.08,4.1,7.87-1.52-.85-3.78a18.36,18.36,0,0,0,6.12-3.94l3.53,2.17,4.07-6.22-3.27-2.6Zm-7.81-2.66a10.22,10.22,0,1,1-6-13.14A10.21,10.21,0,0,1,556.23,367.56Z" fill="#1c0ebd"/><path d="M452.17,328.62a17.21,17.21,0,0,0,1.18-5.82l4.43-1.2-1-6.18-4.69.59a16,16,0,0,0-2.75-4.5l2.31-4.07-5.09-3.16-2.85,3.09-.53-.23a15.64,15.64,0,0,0-5.24-1.06l-.71-3.56-6.64,1.32.42,3.6a16.81,16.81,0,0,0-5.57,4l-2.79-2-4.45,5.55,3.5,2.71a9.52,9.52,0,0,0-.85,5.09l-4.67,1.38.94,6.57,5.07-.9a16.34,16.34,0,0,0,2.43,4l-2.53,4.53,5,3.17,2.74-3.61c.37.19.76.36,1.16.52a15.34,15.34,0,0,0,4.36,1l.85,3.75,7-1.36-.67-3.45a16.8,16.8,0,0,0,5.54-3.58l3.08,2L455,331l-2.84-2.38Zm-6.88-2.45a9.05,9.05,0,1,1-5-12A9.23,9.23,0,0,1,445.29,326.17Z" fill="#d1d3d4"/><path d="M454.69,403.84a37.31,37.31,0,0,0,2.56-12.6l9.56-2.59-2.1-13.34-10.11,1.28a35.4,35.4,0,0,0-6-9.74l5-8.79-11-6.82-6.15,6.66c-.38-.16-.76-.33-1.15-.48a33.7,33.7,0,0,0-11.31-2.3l-1.55-7.68-14.33,2.85.89,7.77a36.37,36.37,0,0,0-12,8.57l-6-4.41-9.6,12,7.55,5.86c-2.61,4.52-1.84,11-1.84,11L377,394l2,14.2,11-1.95a35.13,35.13,0,0,0,5.24,8.59l-5.47,9.79,10.82,6.85,5.9-7.8c.82.39,1.65.77,2.51,1.11a33.64,33.64,0,0,0,9.42,2.19l1.84,8.11,15.21-2.95L434,424.72A36.3,36.3,0,0,0,446,417l6.67,4.3L460.81,409l-6.14-5.15Zm-14.87-5.3c-4.07,10.41-15.51,15.67-25.57,11.74s-14.9-15.55-10.83-26,15.52-15.67,25.57-11.74S443.89,388.12,439.82,398.54Z" fill="#1c0ebd"/><path d="M491.48,468.73v-18H460.82v-5.89l29.45-42.14h9.64v41h9.24v7h-9.24v18Zm0-25v-22c0-3.45.11-6.9.31-10.35h-.31c-2,3.85-3.65,6.7-5.48,9.74l-16.14,22.44v.2Z" fill="#6742c3"/><path d="M559.71,435c0,22.44-8.32,34.83-22.94,34.83-12.9,0-21.63-12.08-21.83-33.91,0-22.14,9.54-34.32,22.94-34.32C551.79,401.62,559.71,414,559.71,435Zm-35.84,1c0,17.16,5.28,26.9,13.4,26.9,9.14,0,13.51-10.66,13.51-27.51,0-16.25-4.17-26.91-13.41-26.91C529.56,408.52,523.87,418.07,523.87,436Z" fill="#6742c3"/><path d="M595.45,468.73v-18H564.79v-5.89l29.44-42.14h9.65v41h9.23v7h-9.23v18Zm0-25v-22q0-5.18.3-10.35h-.3c-2,3.85-3.66,6.7-5.48,9.74l-16.15,22.44v.2Z" fill="#6742c3"/><path d="M395.38,483.07a64.18,64.18,0,0,1,9.94-.72c5.13,0,8.88,1.1,11.26,3.07a9.59,9.59,0,0,1,3.51,7.73,10.41,10.41,0,0,1-3.09,7.9c-2.74,2.68-7.21,4.06-12.27,4.06a19.59,19.59,0,0,1-4.17-.33v14.8h-5.18Zm5.18,17.81a18.44,18.44,0,0,0,4.29.39c6.25,0,10.06-2.8,10.06-7.9,0-4.88-3.75-7.23-9.47-7.23a23.54,23.54,0,0,0-4.88.38Z" fill="#6742c3"/><path d="M428.55,508l-4.17,11.62H419l13.64-37h6.25l13.7,37h-5.54L442.78,508Zm13.16-3.73-3.93-10.64c-.89-2.41-1.49-4.6-2.08-6.74h-.12c-.6,2.19-1.25,4.44-2,6.69l-3.93,10.69Z" fill="#6742c3"/><path d="M488.17,517.94a40.61,40.61,0,0,1-12.33,2c-6.08,0-11.08-1.42-15-4.88-3.45-3.07-5.6-8-5.6-13.76.06-11,8.28-19.08,21.74-19.08a26.8,26.8,0,0,1,10,1.7l-1.25,3.9a22.27,22.27,0,0,0-8.87-1.59c-9.77,0-16.14,5.59-16.14,14.85S466.84,516,476.19,516a18.14,18.14,0,0,0,6.91-1V504h-8.16v-3.84h13.23Z" fill="#6742c3"/><path d="M516.87,502.26h-15.6v13.32h17.39v4H496.09v-37h21.67v4H501.27v11.68h15.6Z" fill="#6742c3"/><path d="M558.79,502.26h-15.6v13.32h17.39v4H538v-37h21.68v4h-16.5v11.68h15.6Z" fill="#6742c3"/><path d="M567.31,483.12a58.83,58.83,0,0,1,10-.77c5.53,0,9.11.94,11.61,3a8.88,8.88,0,0,1,3.16,7c0,4.88-3.34,8.11-7.57,9.43V502c3.1,1,4.94,3.62,5.9,7.46,1.31,5.15,2.26,8.71,3.09,10.14H588.1c-.66-1-1.55-4.22-2.69-8.83-1.19-5.1-3.33-7-8-7.18h-4.88v16h-5.18ZM572.49,500h5.3c5.54,0,9.05-2.79,9.05-7,0-4.78-3.75-6.86-9.23-6.91a23,23,0,0,0-5.12.44Z" fill="#6742c3"/><path d="M599.35,483.12a58.83,58.83,0,0,1,9.95-.77c5.53,0,9.11.94,11.61,3a8.88,8.88,0,0,1,3.16,7c0,4.88-3.34,8.11-7.57,9.43V502c3.1,1,4.94,3.62,5.9,7.46,1.31,5.15,2.26,8.71,3.09,10.14h-5.35c-.66-1-1.55-4.22-2.69-8.83-1.19-5.1-3.33-7-8-7.18h-4.88v16h-5.18ZM604.53,500h5.3c5.54,0,9-2.79,9-7,0-4.78-3.75-6.86-9.23-6.91a23,23,0,0,0-5.12.44Z" fill="#6742c3"/><path d="M665.87,500.72c0,12.72-8.4,19.46-18.64,19.46-10.6,0-18-7.56-18-18.75,0-11.73,7.92-19.41,18.64-19.41C658.78,482,665.87,489.76,665.87,500.72Zm-31.15.6c0,7.9,4.65,15,12.81,15s12.86-7,12.86-15.35c0-7.35-4.17-15-12.8-15S634.72,493.21,634.72,501.32Z" fill="#6742c3"/><path d="M672.6,483.12a58.83,58.83,0,0,1,9.95-.77c5.54,0,9.11.94,11.61,3a8.88,8.88,0,0,1,3.16,7c0,4.88-3.34,8.11-7.57,9.43V502c3.1,1,5,3.62,5.9,7.46,1.31,5.15,2.26,8.71,3.1,10.14h-5.36c-.66-1-1.55-4.22-2.68-8.83-1.2-5.1-3.34-7-8-7.18h-4.89v16H672.6ZM677.78,500h5.3c5.54,0,9-2.79,9-7,0-4.78-3.75-6.86-9.23-6.91a23.05,23.05,0,0,0-5.12.44Z" fill="#6742c3"/><path d="M519.62,348a29.41,29.41,0,0,0,2-10l7.58-2.06-1.66-10.57-8,1a27.73,27.73,0,0,0-4.71-7.71l3.95-7-8.72-5.4-4.88,5.28-.91-.38a26.73,26.73,0,0,0-9-1.83l-1.23-6.08-11.35,2.26.71,6.15a28.77,28.77,0,0,0-9.53,6.79L469.13,315l-7.6,9.49,6,4.65c-2.07,3.58-1.46,8.71-1.46,8.71l-8,2.37,1.61,11.24,8.69-1.54a27.61,27.61,0,0,0,4.15,6.81l-4.33,7.75,8.57,5.43,4.68-6.18c.64.31,1.3.61,2,.88a26.82,26.82,0,0,0,7.47,1.73l1.46,6.43,12.05-2.34-1.14-5.91a28.67,28.67,0,0,0,9.48-6.13l5.28,3.41,6.47-9.71L519.61,348Zm-11.78-4.2a15.76,15.76,0,0,1-20.26,9.31c-8-3.11-11.8-12.32-8.58-20.58s12.3-12.42,20.26-9.3S511.07,335.5,507.84,343.75Z" fill="#d1d3d4"/><path d="M595.25,634.66c12.88.81,24.88-23.11,26.8-53.43,1.65-26.11-4.71-48.46-14.74-54.68l32.59,2.16s44.31,2.89,48.18,49.7h0c0,.44.08.88.11,1.33C688.19,579.75,693.74,652,595.25,634.66Z" fill="#1c0ebd"/><path d="M595.25,634.66c12.88.81,24.88-23.11,26.8-53.43,1.65-26.11-4.71-48.46-14.74-54.68l32.59,2.16s44.31,2.89,48.18,49.7h0c0,.44.08.88.11,1.33C688.19,579.75,693.74,652,595.25,634.66Z" opacity="0.1"/><path d="M595.25,634.66c12.88.81,24.88-23.11,26.8-53.43,1.65-26.11-4.71-48.46-14.74-54.68l7.75.52s31.13,28.5,12.84,95.36c0,0,51.78-.89,60.18-44,0,.44.08.88.11,1.33C688.19,579.75,693.74,652,595.25,634.66Z" opacity="0.2"/><path d="M622.05,581.23c-1.92,30.32-13.92,54.24-26.8,53.43s-21.77-26.06-19.85-56.38,13.92-54.24,26.8-53.43a10.89,10.89,0,0,1,5.11,1.7C617.34,532.77,623.7,555.12,622.05,581.23Z" fill="#d1d3d4"/><ellipse cx="598.96" cy="580.43" rx="50.72" ry="17.32" transform="translate(-18.13 1141.56) rotate(-86.38)" fill="#e6e7e8"/><rect x="544.77" y="590.14" width="57.71" height="18.81" rx="9.4" transform="translate(18 -16.72) rotate(1.7)" fill="#6742c3"/><rect x="547.77" y="552.31" width="57.71" height="18.81" rx="9.4" transform="translate(16.88 -16.83) rotate(1.7)" fill="#6742c3"/><g opacity="0.2"><rect x="544.77" y="590.14" width="57.71" height="18.81" rx="9.4" transform="translate(18 -16.72) rotate(1.7)"/><rect x="547.77" y="552.31" width="57.71" height="18.81" rx="9.4" transform="translate(16.88 -16.83) rotate(1.7)"/></g><path d="M368.78,582.09c1.92,30.32,13.92,54.24,26.8,53.43s21.77-26.06,19.85-56.38-13.92-54.24-26.8-53.43a10.89,10.89,0,0,0-5.11,1.7C373.49,533.63,367.13,556,368.78,582.09Z" fill="#d1d3d4"/><ellipse cx="391.87" cy="581.29" rx="17.32" ry="50.72" transform="matrix(1, -0.06, 0.06, 1, -35.91, 25.9)" fill="#e6e7e8"/><ellipse cx="392.81" cy="602.71" rx="6.03" ry="10.11" fill="#6742c3"/><path d="M390.85,593.16s5.45,6.06,2,19.66c0,0,5.55.17,6-10.11C398.84,602.71,398.66,590.74,390.85,593.16Z" opacity="0.2"/><ellipse cx="390.85" cy="562.86" rx="6.03" ry="10.11" fill="#6742c3"/><path d="M388.89,553.31s5.45,6.06,2,19.67c0,0,5.54.17,6-10.12C396.88,562.86,396.7,550.89,388.89,553.31Z" opacity="0.2"/><path d="M251.31,161.7a22.12,22.12,0,0,0-6.37-6.73,1.24,1.24,0,0,0-1.86,1A18.14,18.14,0,0,1,242,161.7S248.89,160.68,251.31,161.7Z" fill="#f7a48b"/><path d="M201.58,160.06a6.78,6.78,0,0,1,2.61-3.39,2.49,2.49,0,0,1,3.66,2.74,2.2,2.2,0,0,1-1.25,1.42Z" fill="#f7a48b"/><path d="M185.81,598.61,187.39,618s17.12-3.81,18.07,7.29l1.91-26.63Z" fill="#f9b499"/><path d="M258.57,602.25l2,15.16s13.52,4.92,21.79-2.35l-2.83-20.38S271.85,601.21,258.57,602.25Z" fill="#f9b499"/><path d="M181.76,363.78s-6.1,88.68-.07,150.82l4.12,84S219.1,610.34,215,587.83c0,0,1.91-38.68,1.91-70.7,0,0,3.48-67.84,7.29-80.84,0,0,2.22,41.85,13,85,0,0,11.46,65.57,13.79,79.46a1.38,1.38,0,0,0,1.13,1.15c3.31.58,14.6,1.69,27.45-7.19a4,4,0,0,0,1.67-3.81c-1.76-12.48-9.88-72.46-10.44-124.14l-.95-79.57L217,356.09Z" fill="#6742c3"/><path d="M181.76,363.78s-6.1,88.68-.07,150.82l4.12,84S219.1,610.34,215,587.83c0,0,1.91-38.68,1.91-70.7,0,0,3.48-67.84,7.29-80.84,0,0,2.22,41.85,13,85,0,0,11.46,65.57,13.79,79.46a1.38,1.38,0,0,0,1.13,1.15c3.31.58,14.6,1.69,27.45-7.19a4,4,0,0,0,1.67-3.81c-1.76-12.48-9.88-72.46-10.44-124.14l-.95-79.57L217,356.09Z" opacity="0.1"/><path d="M263.19,199.89l18.44,17.9-28.29,17.9-56.75-2.14s-17.48,1.06-30.23-12.77c0,0,4.83-4.84,8.39-9.27a24.79,24.79,0,0,1,5.88-5.31l6.88-4.41s-8.68-13.56-14.1-15.73c0,0-55.6,22.78-50.45,34.44,0,0-1.55,14.95,40.58,47.36a50.74,50.74,0,0,0,4.68,3.12c2.39,1.47,7.22,6.55,7.63,23.84l.54,65.37s-.81,3.8,10.58,4.07c0,0,4.61,3.53,32.82,4.61,0,0,14.7.45,24.73,8.81a48.1,48.1,0,0,0,8.73,6c8.84,4.57,24.42,11.82,21.87,4.76-3.52-9.76-3-7.59-2.44-17.9,0,0,1.9-24.68-1.35-45.84,0,0-4.34-45.44,8.95-58.39L313.1,236s14.37-13.83,0-26.58l-37.7-27.93S263.73,196.09,263.19,199.89Z" fill="#1c0ebd"/><path d="M276.82,213.12s14,4.4,22.45,4.4a97.34,97.34,0,0,1-35.57,11.62l17.93-11.35Z" opacity="0.1"/><path d="M271.78,327.89s-12-9.67-7.4-40.06a38.18,38.18,0,0,1,5-14.16c2.58-4.23,6.31-8.25,10.92-7.4a38.4,38.4,0,0,0-8.11,20.13S269,307.25,271.78,327.89Z" opacity="0.1"/><path d="M177.48,208.61S158,224,142.76,224c0,0,14,.59,20.3,4a22.83,22.83,0,0,0,5.56,2.22,58.09,58.09,0,0,0,15.66,1.59s-11.14-2.63-17.92-11Z" opacity="0.1"/><path d="M143.56,250.89s15.47,12.47,28.49,13.28c0,0,11.4-2.44,9.5,17.91L176,317.87s3.64-40.46-8-46.94a33.69,33.69,0,0,1-4.62-3.25C158,263.34,147.59,255,143.56,250.89Z" opacity="0.1"/><path d="M209,233.55a23.08,23.08,0,0,0,12.61,16.67s2.2,6.61,3.77,8.18h1.9l3.14-6.92s13.61-7.91,13.77-21.27Z" fill="#f7a48b"/><ellipse cx="225.38" cy="203.83" rx="25.93" ry="38.36" fill="#f9b499"/><ellipse cx="251.31" cy="206.4" rx="7.71" ry="4.5" transform="translate(17.34 432.27) rotate(-83.39)" fill="#f9b499"/><ellipse cx="199.45" cy="206.4" rx="4.5" ry="7.71" transform="translate(-48.09 61.13) rotate(-15.57)" fill="#f9b499"/><path d="M197.38,199s-7.57-30.5,16.65-35.22a11.41,11.41,0,0,0-2.15-7.92s5.15,1.5,7.93,4.71v-3.86s3,1.29,4.07,2.79c0,0,4.07-2.79,6.43-2.57,0,0-2.14,3.43-.86,4.5,0,0,9.65-2.36,13.72-7.29,0,0,.86,7.29-3.43,10.07,0,0,18.28,14.68,12.46,34.55,0,0-4.15,6.17-3.67,10.45,0,0-5.15.86-3.22-6.85,0,0,2.79-11.64,1.5-17.15,0,0-6.64-.64-8.57-5.57,0,0,3.21,9,2.14,13.5,0,0-6.43-14.14-15-16.93,0,0,1.5,15.65-17.35,13.5,0,0,4.07-2.57,3.42-6.64l-2.57-.43s-1.93,7.93-7.24,5.8c0,0,1.89,16.92,4,22.7,0,0-5-.34-6-11.85Z" fill="#6742c3"/><path d="M211.53,267.85S197.68,243,196.26,231.64l9-3.62,3.74,5.53s1,10.68,12.61,16.67C221.61,250.22,219.09,261.86,211.53,267.85Z" fill="#1c0ebd"/><path d="M211.53,267.85S197.68,243,196.26,231.64l9-3.62,3.74,5.53s1,10.68,12.61,16.67C221.61,250.22,219.09,261.86,211.53,267.85Z" fill="#fff" opacity="0.2"/><path d="M230.42,251.48s2.21,11.33,9.76,14.79a63.69,63.69,0,0,0,13.16-34.63l-9.15-1.43S239.87,244.55,230.42,251.48Z" fill="#1c0ebd"/><path d="M230.42,251.48s2.21,11.33,9.76,14.79a63.69,63.69,0,0,0,13.16-34.63l-9.15-1.43S239.87,244.55,230.42,251.48Z" fill="#fff" opacity="0.2"/><path d="M218.18,259.36l14.69-1,1.18,2.11-4.6,2,.15,8.71s5.66,48.86,13.57,64.2a2.63,2.63,0,0,1-.31,2.9l-5.38,6.37a2.13,2.13,0,0,1-3.17.08,49,49,0,0,0-7.1-6.18c-1.25-.9-2.59-1.67-3.92-2.44-1.79-1.05-5.88-4.85-5.11-17.64l3.43-47.36s1.2-6-.94-7.71l-3.7-1.88Z" fill="#6742c3"/><path d="M264.82,177.11s-5.43-16-17.36-16l-18,.3s-5.3,5.4,12.32,7.7c0,0,7.21,2.49,6.77,9.36,0,0,.27,11.94,8.41,13Z" fill="#f9b499"/><path d="M263.19,199.89s-9.35-2.73-6.24-8.41l7.87-14.37s.54-2.45,4.88,0l5.7,4.34S265.86,192.84,263.19,199.89Z" fill="#6742c3"/><path d="M173.41,186.06l10.87-6.23,10,18.56-6.78,3.4S181.14,191.76,173.41,186.06Z" fill="#6742c3"/><path d="M184.28,179.83s7.93-19.77,17.3-19.77l19.81,3a1.85,1.85,0,0,1,1.36,2.73c-.87,1.43-3.35,2.68-10.1,1.2a1.22,1.22,0,0,0-1.48,1c-.09.77-1,1.58-4.35,1.82a5.92,5.92,0,0,0-4.65,2.73,11.5,11.5,0,0,0-1.63,5.84,15.32,15.32,0,0,1-9.41,14.07Z" fill="#f9b499"/><path d="M172.61,642.28c.61-2.94,2-7.31,5.18-9.41a15.82,15.82,0,0,0,3.71-3.2A34.53,34.53,0,0,0,187.39,618s18.39-3.49,18.07,7.29c0,0,2.74,3,2.11,11.3a7.8,7.8,0,0,0,.56,3.58c.7,1.7,1.38,4.27-.47,5.09H175A2.43,2.43,0,0,1,172.61,642.28Z" fill="#1c0ebd"/><rect x="172.56" y="645.21" width="36.29" height="2.85" rx="1.43" fill="#6742c3"/><path d="M260.58,617.41s-4,13.43-3.76,26.46l65.37,1.34s3-6.17-19.28-13.9c0,0-19.45-8.36-20.54-16.25C282.37,615.06,276.11,622.26,260.58,617.41Z" fill="#1c0ebd"/><polygon points="322.33 649.13 256.82 648.06 256.82 643.87 322.19 645.21 322.33 649.13" fill="#6742c3"/><line x1="221.05" y1="372.88" x2="224.17" y2="436.29" fill="none" stroke="#000" stroke-miterlimit="10" opacity="0.1"/><path d="M218.18,259.36a37.68,37.68,0,0,0,3.43-9.14l8.81,1.26a35.08,35.08,0,0,0,2.45,6.92S222.7,261.08,218.18,259.36Z" fill="#6742c3"/><polyline points="212.65 167.03 201.58 167.03 197.99 171.14" fill="none" stroke="#f7a48b" stroke-miterlimit="10"/><path d="M241.77,169.1s9.74-2,11.57,3.6" fill="none" stroke="#f7a48b" stroke-miterlimit="10"/><g id="b261f0df-e2be-434e-a93d-a6ece7747c8b" data-name="freepik--Plant--inject-3"><path d="M146.23,530c.1.16-2,1.57-5.18,4a121,121,0,0,0-22.4,22c-2.49,3.17-4,5.22-4.09,5.11s1.08-2.27,3.41-5.62a90.77,90.77,0,0,1,10.33-12.08,88.58,88.58,0,0,1,12.25-10.11C143.92,531,146.11,529.83,146.23,530Z" fill="#6742c3"/><path d="M142,512.57c.33.08-.77,5.69-2.46,12.52s-3.31,12.38-3.66,12.29.78-5.7,2.46-12.53S141.66,512.49,142,512.57Z" fill="#6742c3"/><path d="M140.14,511.62c-.83.37-1.07,2.42-.39,3.42a2.56,2.56,0,0,0,3.26.57,2.75,2.75,0,0,0,1.08-3.67,2.65,2.65,0,0,0-4-.25" fill="#6742c3"/><path d="M149,519.52c.14.3-1.87,1.52-4.55,2.71s-4.87,1.93-5,1.63,1.88-1.52,4.55-2.72S148.84,519.25,149,519.52Z" fill="#6742c3"/><path d="M148.77,517.55a4.06,4.06,0,0,0-1.59,2,1.81,1.81,0,0,0,.94,2.19,1.72,1.72,0,0,0,1.59-.34,3.27,3.27,0,0,0,.92-1.42,2.6,2.6,0,0,0,.1-1.78,1.27,1.27,0,0,0-1.46-.79" fill="#6742c3"/><path d="M148.71,527.68a2.43,2.43,0,1,1-.52,0" fill="#6742c3"/><path d="M95,459.36a26.48,26.48,0,0,1,.29,4.08c.09,2.81.22,6.56.37,11.09.25,9.37.51,22.3.73,36.59s.34,27.24.37,36.61v11.09a25.16,25.16,0,0,1-.18,4.07,27.53,27.53,0,0,1-.3-4.06c-.09-2.81-.2-6.56-.35-11.09-.25-9.37-.51-22.32-.74-36.61s-.34-27.24-.34-36.6v-11.1A27.65,27.65,0,0,1,95,459.36Z" fill="#6742c3"/><path d="M113.25,451.55A18.06,18.06,0,1,1,93.8,435h0A18.07,18.07,0,0,1,113.25,451.55Z" fill="#1c0ebd"/><g opacity="0.3"><path d="M94.5,471.09c-.18,0,0-2,.15-5.23a29.45,29.45,0,0,0-1.84-12.15A16.88,16.88,0,0,0,84.62,445c-2.87-1.32-4.94-1.14-4.93-1.37s.5-.19,1.42-.19a10.75,10.75,0,0,1,3.84.79,16.54,16.54,0,0,1,9,9,26.93,26.93,0,0,1,1.59,12.66C95.19,469.15,94.64,471.11,94.5,471.09Z"/></g><g opacity="0.3"><path d="M111.34,445.93c0,.36-5.06,0-10,3.24s-6.75,8-7.07,7.81c-.13-.06.1-1.3,1.06-3.07a16.18,16.18,0,0,1,12.8-8.29C110.13,445.48,111.36,445.78,111.34,445.93Z"/></g><g opacity="0.3"><path d="M103.27,447.36c-.2,0-.43-1.2-1.55-2.73a8.13,8.13,0,0,0-11.3-2.2,8.28,8.28,0,0,0-1.36,1.15c-1.35,1.32-1.79,2.51-2,2.43s0-1.37,1.36-3a8.47,8.47,0,0,1,11.9-1.32,8.37,8.37,0,0,1,2.09,2.46C103.48,446,103.4,447.36,103.27,447.36Z"/></g><g opacity="0.3"><path d="M98.28,450.82c-.35,0-.74-2.45-2.27-5s-3.42-4.18-3.24-4.46,2.63,1,4.29,3.86S98.6,450.84,98.28,450.82Z"/></g><g opacity="0.3"><path d="M96.53,445.45c.08.35-1.41.83-2.64,2s-2.1,2.59-2.41,2.41.08-1.75,1.57-3.29S96.52,445.16,96.53,445.45Z"/></g><path d="M56.56,514.79c.31-.11,5.28,14.53,11.09,32.65s10.24,32.93,9.95,33-5.29-14.53-11.09-32.64S56.24,514.89,56.56,514.79Z" fill="#6742c3"/><path d="M68.11,550.87c-.2.22-5.27-3.79-11.61-8.67s-11.31-9.1-11.09-9.37,5.49,3.5,11.89,8.43S68.36,550.6,68.11,550.87Z" fill="#6742c3"/><path d="M42.6,531.33c-1,.9-.63,2.89.47,4s3.67.57,4.56-.75a3,3,0,0,0-1.14-4,3.28,3.28,0,0,0-4.12,1.08" fill="#6742c3"/><path d="M68.11,507.66c.37.07-.71,5.28-2.87,11.39s-3.41,11.12-3.78,11.06.49-5.31,2.64-11.45S67.83,507.6,68.11,507.66Z" fill="#6742c3"/><path d="M67.54,503.15c-1.2.87-1.26,1.38-1.72,2.79s.2,3.26,1.64,3.56,2.61-.88,3.18-2.15a3.76,3.76,0,0,0,0-3.62,2.12,2.12,0,0,0-2.92-.61,1.94,1.94,0,0,0-.31.26" fill="#6742c3"/><path d="M46.86,546.37c-.12-.31,2-1.49,4.77-2.65s5.09-1.86,5.22-1.56-2,1.5-4.76,2.66S47,546.68,46.86,546.37Z" fill="#6742c3"/><path d="M42.49,544.36c-.82.43-1.13,2.43-1.13,3.26a2.66,2.66,0,0,0,1.27,2.06,3.22,3.22,0,1,0-.16-5.32" fill="#6742c3"/><path d="M51.23,511.41a4.29,4.29,0,0,0,7.41,3.78,3.08,3.08,0,0,0,.83-2.45,5,5,0,0,0-3.87-3.57,4.45,4.45,0,0,0-4.37,2.28" fill="#6742c3"/><path d="M113.09,529.38c.16.07-.44,1.88-1.44,4.79q-1.75,5-4,11.31c-1.52,4.17-2.87,8-4.08,11.3-1.07,2.88-1.75,4.64-1.92,4.55s1.68-7.46,4.86-16.29S112.77,529.25,113.09,529.38Z" fill="#6742c3"/><path d="M132.27,521.09a15.46,15.46,0,1,1-11.92-18.33h0A15.47,15.47,0,0,1,132.27,521.09Z" fill="#1c0ebd"/><g opacity="0.3"><path d="M112.13,532.56c-.16-.08.5-1.66,1.34-4.27a25.51,25.51,0,0,0,1.42-10.39,14.5,14.5,0,0,0-4.56-9.11c-2-1.79-3.74-2.17-3.68-2.38s1.89,0,4.22,1.72a14.2,14.2,0,0,1,5.17,9.64,22.77,22.77,0,0,1-1.82,10.81C113.2,531.17,112.27,532.62,112.13,532.56Z"/></g><g opacity="0.3"><path d="M132.08,516c-.07.35-4.17-1.14-9,.29s-7.46,4.88-7.72,4.61.35-1.07,1.56-2.27a13.77,13.77,0,0,1,5.82-3.42,13.55,13.55,0,0,1,6.75-.24C131.2,515.31,132.13,515.83,132.08,516Z"/></g><g opacity="0.3"><path d="M125.1,515.23c-.2,0-.1-1.14-.66-2.61a6.94,6.94,0,0,0-8.74-4.47,6,6,0,0,0-1.3.57c-1.44.73-2.09,1.58-2.28,1.46s.32-1.14,1.81-2.19a7.26,7.26,0,0,1,11.28,4.39C125.61,514.16,125.22,515.27,125.1,515.23Z"/></g><g opacity="0.3"><path d="M120.18,516.86c-.35-.08-.1-2.2-.72-4.67s-1.75-4.25-1.48-4.47,2,1.41,2.66,4.2S120.48,517,120.18,516.86Z"/></g><g opacity="0.3"><path d="M120,512c0,.36-1.34.43-2.62,1.14s-2.35,1.58-2.6,1.32.43-1.48,2.06-2.39S120.1,511.72,120,512Z"/></g><path d="M77.52,497a11.84,11.84,0,0,1,.59,2.57c.33,1.91.73,4.27,1.14,7,.94,5.95,2.17,14.18,3.41,23.28S85,547.2,85.77,553.18c.32,2.79.58,5.16.81,7.09a11,11,0,0,1,.13,2.62,11.34,11.34,0,0,1-.6-2.56c-.32-1.91-.69-4.26-1.14-7C84,547.35,82.8,539.11,81.56,530s-2.37-17.35-3.11-23.27c-.32-2.79-.58-5.16-.81-7.09A10.85,10.85,0,0,1,77.52,497Z" fill="#6742c3"/><path d="M90.64,480.73A15.45,15.45,0,1,1,71.6,470a15.44,15.44,0,0,1,19,10.71Z" fill="#1c0ebd"/><g opacity="0.3"><path d="M78.13,500.22c-.18,0-.33-1.69-.8-4.4A25.39,25.39,0,0,0,73.77,486a14.55,14.55,0,0,0-8.23-6c-2.61-.65-4.33-.17-4.35-.4s1.65-.9,4.55-.43a14.22,14.22,0,0,1,9.06,6.15,22.68,22.68,0,0,1,3.41,10.4C78.43,498.51,78.28,500.22,78.13,500.22Z"/></g><g opacity="0.3"><path d="M88.12,476.31c.1.36-4.22.94-7.81,4.45s-4.36,7.77-4.71,7.66c-.14,0-.18-1.14.32-2.78a13.68,13.68,0,0,1,9.42-9.11C87,476.1,88.11,476.17,88.12,476.31Z"/></g><g opacity="0.3"><path d="M81.58,478.85c-.18.08-.6-.9-1.8-2A7,7,0,0,0,70,477a7.28,7.28,0,0,0-.88,1.11c-.93,1.32-1.14,2.36-1.32,2.33s-.25-1.14.59-2.78a7.29,7.29,0,0,1,9.82-3.12,7.4,7.4,0,0,1,2.23,1.78C81.57,477.67,81.71,478.83,81.58,478.85Z"/></g><g opacity="0.3"><path d="M78,482.59c-.34.09-1.14-1.9-2.79-3.8s-3.53-3-3.41-3.27,2.41.32,4.29,2.48S78.28,482.54,78,482.59Z"/></g><g opacity="0.3"><path d="M75.6,478.36c.15.33-1,1-1.81,2.2s-1.35,2.49-1.7,2.37-.3-1.5.71-3.06S75.51,478.08,75.6,478.36Z"/></g><polygon points="79.73 661.36 65.69 560.16 126.07 560.16 113.75 661.36 79.73 661.36" fill="#a7a9ac"/><path d="M121.72,599.74c0,.27-11.32.5-25.27.5s-25.27-.23-25.27-.5,11.31-.52,25.27-.52S121.72,599.45,121.72,599.74Z" fill="#fafafa"/><path d="M120.45,606.24c0,.28-10.82.51-24.18.51s-24.17-.23-24.17-.51,10.81-.46,24.17-.46S120.45,606,120.45,606.24Z" fill="#fafafa"/><path d="M119.7,612.47c0,.28-10.47.51-23.37.51s-23.39-.23-23.39-.51,10.47-.5,23.39-.5S119.7,612.19,119.7,612.47Z" fill="#fafafa"/><path d="M118.87,619.23c0,.28-10.06.51-22.49.51s-22.5-.23-22.5-.51,10.07-.5,22.5-.5S118.87,619,118.87,619.23Z" fill="#fafafa"/><path d="M118.12,625.41c0,.29-9.61.51-21.46.51s-21.47-.22-21.47-.51,9.61-.51,21.47-.51S118.12,625.14,118.12,625.41Z" fill="#fafafa"/><path d="M116.92,631.59c0,.28-9.25.51-20.66.51s-20.67-.23-20.67-.51,9.26-.51,20.67-.51S116.92,631.31,116.92,631.59Z" fill="#fafafa"/><path d="M116.62,637.78c0,.27-9,.5-20.09.5s-20.07-.23-20.07-.5,9-.52,20.07-.52S116.62,637.49,116.62,637.78Z" fill="#fafafa"/><path d="M115.86,644c0,.27-8.63.5-19.27.5s-19.28-.23-19.28-.5,8.63-.51,19.28-.51S115.86,643.67,115.86,644Z" fill="#fafafa"/></g></svg>