<svg id="a8f596b6-00ff-40b1-bae1-f37ecceb7811" data-name="Layer 1" xmlns="http://www.w3.org/2000/svg" width="865.76" height="682.89" viewBox="0 0 865.76 682.89"><path d="M562.08,598.49s3,23.34-2.25,26.36l-15.12,11,10.59,3,21.92-7.93s1.13-28.35-2.65-35.53Z" fill="#f9b499"/><path d="M620.68,598.39s4.16,26.08,2.65,32.13l24.19,8.31,6.05-4.91a69,69,0,0,1-11.33-8.4,15.19,15.19,0,0,1-4.39-8.66l-3.06-20.23Z" fill="#f9b499"/><path d="M679.65,582.88l19.15,5,65.83-273.25a6.89,6.89,0,0,0-4.32-8.08l-18.83-6.9a4.46,4.46,0,0,0-5.91,3.31Z" fill="#2f2e41"/><path d="M727.08,318.73l34.5,8.5-1.83,7.58-34.18-8.42L704.05,412.5a3.12,3.12,0,0,1-3.9,2.24h0a3.13,3.13,0,0,1-2.2-3.59l18.86-96.93a5.47,5.47,0,0,1,6.24-4.36h0a5.47,5.47,0,0,1,4.5,6.43Z" fill="#ccc"/><path d="M675.45,640.14h0a4.13,4.13,0,0,0,5.75-2.33l17.6-50-19.15-5-6.46,53.17A4.14,4.14,0,0,0,675.45,640.14Z" fill="#ccc"/><path d="M677.92,640.53l-1.79,6.6a2.09,2.09,0,0,1-2.45,1.49h0a2.07,2.07,0,0,1-1.57-2.54l1.82-7.25A4.75,4.75,0,0,0,677.92,640.53Z" fill="#2f2e41"/><path d="M677.51,286.83l70,2.92s9.28-1,13.06,5.52l5.73,8.7a4,4,0,0,1-.19,4.63h0a4,4,0,0,1-4.9,1.07l-12.48-6.34s-5.55-.5-2.52,4.54a12.54,12.54,0,0,0,3,2.31,1.33,1.33,0,0,1-.18,2.44c-3.64,1.18-10.08,1.13-16-9.79l-55.55,3Z" fill="#f9b499"/><path d="M554.67,347.41s-16.91.5-20.1-19.27c0,0,0-8.44-1.8-13.46a18.58,18.58,0,0,1-1.19-7.73c.35-4.64,2-10.92,8.1-13.57,0,0,11-7.09,9.5-23.64s4.21-36.2,9-46c0,0,1.11-1.92.56-7.18a19,19,0,0,1,2.39-11.76c2.51-4.18,7.08-8.5,15.32-9.1,0,0,29.71-5.88,38,7.78a33.7,33.7,0,0,0,2,2.92c3.1,4.08,11.12,17,5.84,36.31a5.9,5.9,0,0,0,1.34,5.49c4.31,4.84,13,16.67,10.08,31.32,0,0,23.34,37.13,10.9,53.39,0,0-7.65,8.25-8,14.49,0,0-2.55,14.54-23.92,9.43Z" fill="#2f2e41"/><path d="M557.6,225s7.91,4.29,21.62-10.38c0,0,2.24,8.85,16.91,11,0,0,.32,26.73,11.8,33.88,0,0-1.28,24.18,3.82,38.94l1,58.46s20.41,5.38,23.92-9.43a24.72,24.72,0,0,1,8-14.49s13.61-12.7-10.9-53.39c0,0,4.69-13.11-10.08-31.32,0,0-3.17-2.08-.54-8.88,0,0,4.24-18-6.64-32.92,0,0-4.12-10.13-15.69-11,0,0-32.62-4.39-38.72,8.07,0,0-4.24,4.9-3.15,15.48A15.65,15.65,0,0,1,557.6,225Z" fill="#2f2e41"/><path d="M125.91,84.34H469.83A27.07,27.07,0,0,1,496.9,111.4V619.78a24.32,24.32,0,0,1-24.32,24.32H123.17a24.32,24.32,0,0,1-24.32-24.32V111.4a27.07,27.07,0,0,1,27.07-27.07Z" fill="#ccc"/><path d="M141.62,111.1H454.41a17.82,17.82,0,0,1,17.82,17.82v475.3A15.2,15.2,0,0,1,457,619.4H139a15.2,15.2,0,0,1-15.2-15.2V128.91a17.82,17.82,0,0,1,17.82-17.82Z" fill="#f1f2f2"/><circle cx="181.68" cy="215.01" r="27.78" fill="#ccc"/><polygon points="167.67 205.95 179.12 216.69 195.96 193.5 199.86 199.12 180.22 222.79 163.5 209.73 167.67 205.95" fill="#fff"/><circle cx="181.68" cy="292.68" r="27.78" fill="#ccc"/><polygon points="167.67 283.62 179.12 294.36 195.96 271.18 199.86 276.79 180.22 300.46 163.5 287.4 167.67 283.62" fill="#fff"/><circle cx="181.68" cy="370.35" r="27.78" fill="#ccc"/><polygon points="167.67 361.3 179.12 372.03 195.96 348.85 199.86 354.46 180.22 378.13 163.5 365.08 167.67 361.3" fill="#fff"/><circle cx="181.68" cy="448.02" r="27.78" fill="#ccc"/><polygon points="167.67 438.97 179.12 449.7 195.96 426.52 199.86 432.13 180.22 455.81 163.5 442.75 167.67 438.97" fill="#fff"/><circle cx="181.68" cy="518.83" r="27.78" fill="#ccc"/><polygon points="167.67 516.64 179.12 527.37 195.96 504.19 199.86 509.8 180.22 533.48 163.5 520.42 167.67 516.64" fill="#fff"/><rect x="236.67" y="188.68" width="184.45" height="7.03" rx="3.51" fill="#ccc"/><rect x="236.67" y="203.75" width="157.28" height="7.03" rx="3.51" fill="#ccc"/><rect x="236.67" y="220.84" width="111.22" height="7.03" rx="3.51" fill="#ccc"/><rect x="236.67" y="266.23" width="154.71" height="7.03" rx="3.51" fill="#ccc"/><rect x="236.67" y="281.3" width="146.65" height="7.03" rx="3.51" fill="#ccc"/><rect x="236.67" y="298.38" width="182.68" height="7.03" rx="3.51" fill="#ccc"/><rect x="236.67" y="343.9" width="145.64" height="7.03" rx="3.51" fill="#ccc"/><rect x="236.67" y="358.97" width="186.19" height="7.03" rx="3.51" fill="#ccc"/><rect x="236.67" y="376.06" width="179.91" height="7.03" rx="3.51" fill="#ccc"/><rect x="235.8" y="421.57" width="159.62" height="7.03" rx="3.51" fill="#ccc"/><rect x="235.8" y="436.64" width="196.66" height="7.03" rx="3.51" fill="#ccc"/><rect x="235.8" y="453.73" width="174.36" height="7.03" rx="3.51" fill="#ccc"/><rect x="235.8" y="499.24" width="194.39" height="7.03" rx="3.51" fill="#ccc"/><rect x="235.8" y="514.31" width="159.62" height="7.03" rx="3.51" fill="#ccc"/><rect x="235.8" y="531.4" width="112" height="7.03" rx="3.51" fill="#ccc"/><path d="M435.48,123.67v6h-272v-6a30.24,30.24,0,0,1,30.24-30.23H405.25A30.24,30.24,0,0,1,435.48,123.67Z" fill="#ccc"/><path d="M353.84,88.58c0,1.64-.07,3.26-.22,4.86H245.36c-.15-1.6-.22-3.22-.22-4.86a54.35,54.35,0,1,1,108.7,0Z" fill="#ccc"/><circle cx="298.58" cy="70.51" r="8.06" opacity="0.2"/><path d="M497.09,169.05l-.19-14.56-5-.83c-5-1-2.77-4.54-2.77-4.54s3.58-4.55,15.38,0c.93.36,1.86.72,2.8,1,2.39.76,8.67,3.69,7.9,13.37,0,0-1.48,10.2.77,13.42l17,48.56-16.07,13.8-.93-4.06s-10.51-48.55-13.51-58.05c0,0-6-3.94-5.59-10.93" fill="#f9b499"/><path d="M552.69,295.13c-6.85-6.25-24.76-35.94-31.88-47.67a17.77,17.77,0,0,0-5.09-5.58c-1.82-1.24-3.2-3.73,2.35-8.22,0,0,15.12-14.36,18.33-8.5,0,0,6.61,17.19,14.74,22.48,0,0,19.45,14.65,25.3,16.54" fill="#6742c3"/><path d="M554.69,368.24s-3-4.19-3-13.53a118,118,0,0,0-1.06-16.59c-1.75-12.3-3.3-34.11,4.49-48.37.59-1.07,1.14-2.17,1.65-3.29,3.14-6.81,14.84-29.49,27.42-20.23,0,0,36.84,8.07,46.67,13l50.35,5.6s1.84,18-4.61,23.87c0,0-3.68,1.84-8.29-1.23l-40.52,11.28s-10.25,20.72-10.08,36.51a74.43,74.43,0,0,1-.62,11.27c-.76,5.29-2,11.66-3.73,13.06C613.33,379.57,578,390.34,554.69,368.24Z" fill="#6742c3"/><path d="M607.93,259.44s-10.66-4.55-11.8-33.88c0,0-13.39-.92-16.91-11,0,0-6,7.41-11.58,9.15,0,0-3.86,37.5,18.14,40.29l-1.71,10.11a18.14,18.14,0,0,1-1.07,3.76c-2.15,5.27-8.06,21.44-4.08,31.1,0,0,20.54-7.87,25.82-20.91a14.25,14.25,0,0,0,.82-3.11C606.25,280.69,608.24,267.34,607.93,259.44Z" fill="#f9b499"/><path d="M554.69,368.24s-20.18,24.16-17.16,45.14c0,0,7.94,137.39,19.28,184.26,0,0,6.42,9.82,21.92,0,0,0-5.29-172,1.51-164.79,0,0,3.78-4.92,5.29,14,0,0,28,145.89,30.24,153.45,0,0,15.87,7.94,22.68-4.91L624.84,428.6s0-16.54-3.78-25.24l-7.73-23.79S579.26,390.12,554.69,368.24Z" fill="#2f2e41"/><path d="M537.64,640.81c-.61,1.86-.09,4.39,7.07,4.7,0,0,8.44,1.46,14.49-1.41,0,0,8.06-5.64,11.34-3.12v4h6.84s4.19-12.83-.06-17.63a37.26,37.26,0,0,1-19,7.55s-9.06,2-8.39-2.92l-10.16,6.21A5,5,0,0,0,537.64,640.81Z" fill="#6742c3"/><path d="M625,644.69h5.86s-2-4.48,2-4.28a5.31,5.31,0,0,1,3.26,1.44,16.33,16.33,0,0,0,10.65,4s15.88,2.22,17.39-4.21c0,0,2.35-3.41-15-10.59,0,0,4.12,5.3-4.53,4,0,0-13.09-1.47-20.37-7.17a.76.76,0,0,0-1.12.18C622,630,619.57,635.59,625,644.69Z" fill="#6742c3"/><path d="M585.78,264l-.41,2.45s7.63-.13,12-2.45C597.38,264,588.3,265.59,585.78,264Z" fill="#f7a48b"/></svg>